<svg xmlns="http://www.w3.org/2000/svg" height="56" viewBox="0 0 122.39 58.92"><defs><style>.a{fill:#000}</style></defs><path class="a" d="M28.918 29.497c0-2.509-1.748-4.154-4.449-4.154h-2.946v8.308h2.942c2.701 0 4.453-1.644 4.453-4.154zM11.14 25.69l-2.268 5.3h4.553z"/><path class="a" d="M0 20.874v17.057a2.7 2.7 0 0 0 2.759 2.759H35.87V18.115H2.759A2.7 2.7 0 0 0 0 20.874zm19.273 2.565h5.3c3.93 0 6.612 2.424 6.612 6.058s-2.682 6.058-6.612 6.058h-5.3zm-9.225 0h2.216l5.467 12.116H15.38l-1.212-2.8H8.11l-1.195 2.8h-2.32zm32.367 3.709c0-.4.374-.728 1.545-.728a7.489 7.489 0 0 1 3.313.861l1.21-2.831a9.653 9.653 0 0 0-4.486-1.009c-3.687 0-5.538 1.754-5.538 3.906 0 4.32 6.575 3.145 6.575 4.6 0 .4-.408.628-1.546.628a8.321 8.321 0 0 1-3.925-1.059l-1.291 2.846a10.888 10.888 0 0 0 5.182 1.192c3.687 0 5.538-1.788 5.538-3.906-.003-4.269-6.577-3.108-6.577-4.5zm18.076-3.709h-11.18v3.17h3.543v8.948h4.085v-8.949h3.547zm8.446 0h-4.015l-5.3 12.115h4.156l.812-2.112h4.6l.814 2.112h4.224zm-3.219 7.06 1.177-3.046 1.177 3.046zm13.259 2.011h1.107l2.059 3.045h4.363l-2.545-3.738a4.057 4.057 0 0 0 2.286-3.807c0-2.8-2.147-4.569-5.522-4.569h-5.833v12.115h4.085zm0-5.92h1.489c1.125 0 1.662.537 1.662 1.419s-.537 1.42-1.662 1.42h-1.489zM92.039 0l-3.3 10.148 4 12.365h6.591zm30.351 22.543-10.741-.016L96.28 33.655l6.084 18.768 8.725 6.379-7.339-22.592zM76.284 48.354l-3.443 10.57 19.125-14.053-5.428-3.995z"/></svg>