<svg xmlns="http://www.w3.org/2000/svg" height="56" viewBox="0 0 104 22"><script/><mask id="a" style="mask-type:alpha" maskUnits="userSpaceOnUse" x="0" y="0" width="22" height="22" fill="#000"><path fill-rule="evenodd" clip-rule="evenodd" d="M0 0h21.152v22H0V0Z"/></mask><g mask="url(#a)"><path fill-rule="evenodd" clip-rule="evenodd" d="M15.812 11.001H14.23V9.497h1.57c.882 0 .817 1.503.011 1.503Zm.053 2.6H14.23v-1.684h1.634c.965 0 .965 1.684 0 1.684Zm0 .891h-2.818V8.607h2.817c2.183 0 2.181 2.308 1.107 2.802 1.334.6 1.22 3.083-1.107 3.083Zm-6.17-9.851c0 .15-.068.291-.185.386L1.763 11.3V9.166l7.932-6.423v1.898Zm0 4.387c0 .15-.068.292-.185.386L3.07 14.63a.34.34 0 0 1-.427 0l-.786-.636a.33.33 0 0 1 0-.516L9.695 7.13v1.898Zm0 4.673c0 .15-.068.292-.185.387l-3.768 3.05-1.48-1.193 5.433-4.396V13.7Zm11.456-4.78c0-.349-.16-.68-.433-.901L10.995.15a.681.681 0 0 0-.856 0L.432 8.011A1.161 1.161 0 0 0 0 8.913v5.03c0 .499.227.972.617 1.288l4.571 3.701a.852.852 0 0 0 1.07 0l3.437-2.783v1.824c0 .35-.159.68-.432.902l-2.035 1.648C6.615 21.018 6.97 22 7.763 22h5.607c.792 0 1.147-.981.535-1.477l-2.014-1.631a1.161 1.161 0 0 1-.433-.903l.002-1.813 3.415 2.758c.311.25.758.25 1.069-.001l4.591-3.718c.391-.316.618-.79.617-1.289l-.001-5.005Z"/></g><path fill-rule="evenodd" clip-rule="evenodd" d="M98.124 18.468c-1.2 0-2.223-.206-3.065-.619a4.55 4.55 0 0 1-1.958-1.79c-.464-.78-.715-1.711-.754-2.795-.013-.554-.02-.872-.02-1.51 0-.64.007-1.52.02-2.088.039-1.07.29-1.986.754-2.747.463-.761 1.123-1.348 1.978-1.76.855-.413 1.87-.62 3.045-.62.953 0 1.79.126 2.508.377.717.252 1.315.575 1.792.968.476.393.835.816 1.077 1.267.241.452.368.87.382 1.257a.339.339 0 0 1-.098.29.43.43 0 0 1-.314.117h-2.017c-.131 0-.229-.026-.294-.078a.683.683 0 0 1-.176-.232 2.87 2.87 0 0 0-.49-.803 2.638 2.638 0 0 0-.9-.667c-.38-.18-.87-.271-1.47-.271-.888 0-1.596.232-2.124.697-.53.464-.814 1.231-.853 2.302-.049 1.4-.03 2.535 0 3.405.04 1.096.33 1.883.872 2.36.542.477 1.257.716 2.145.716.587 0 1.112-.103 1.576-.31a2.402 2.402 0 0 0 1.097-.967c.267-.438.402-1 .402-1.683v-.129h-2.39a.467.467 0 0 1-.47-.484v-1.218a.469.469 0 0 1 .47-.484h4.681a.45.45 0 0 1 .343.136c.085.09.127.207.127.541v1.753c0 .89-.238 1.826-.715 2.612-.477.787-1.155 1.393-2.037 1.819-.881.425-1.922.638-3.124.638Zm-16.42 0c-1.2 0-2.222-.206-3.065-.619a4.55 4.55 0 0 1-1.958-1.79c-.464-.78-.715-1.711-.754-2.795a78.659 78.659 0 0 1 0-3.598c.039-1.07.29-1.986.754-2.747.463-.761 1.123-1.348 1.978-1.76.855-.413 1.87-.62 3.045-.62.953 0 1.79.126 2.507.377.719.252 1.316.575 1.793.968.476.393.835.816 1.077 1.267.241.452.368.87.382 1.257a.335.335 0 0 1-.098.29.427.427 0 0 1-.314.117h-2.017c-.13 0-.229-.026-.294-.078a.676.676 0 0 1-.176-.232 2.869 2.869 0 0 0-.49-.803 2.642 2.642 0 0 0-.9-.667c-.38-.18-.869-.271-1.47-.271-.888 0-1.596.232-2.124.697-.53.464-.814 1.231-.853 2.302a49.435 49.435 0 0 0 0 3.405c.04 1.096.33 1.883.872 2.36.542.477 1.257.716 2.145.716.587 0 1.112-.103 1.576-.31.464-.206.83-.528 1.097-.967.267-.438.402-.807.402-1.49v-.322h-2.39a.467.467 0 0 1-.47-.484v-1.218a.469.469 0 0 1 .47-.484h4.681c.143 0 .258.046.343.136.085.09.127.207.127.348V13.4c0 1.084-.238 1.826-.715 2.612-.477.787-1.155 1.393-2.037 1.819-.88.425-1.922.638-3.124.638Zm-18.384-5.3h4.33l-2.174-5.824-2.156 5.824Zm-3.935 5.107a.412.412 0 0 1-.284-.116.376.376 0 0 1-.127-.29.47.47 0 0 1 .039-.174l4.72-12.479a.726.726 0 0 1 .225-.338c.11-.097.264-.145.46-.145h2.135c.196 0 .346.048.45.145a.94.94 0 0 1 .236.338l4.72 12.479c.013.064.02.122.02.174 0 .116-.04.213-.118.29a.378.378 0 0 1-.274.116h-1.704c-.183 0-.317-.042-.402-.126a.642.642 0 0 1-.166-.242l-.98-2.514h-5.701l-.977 2.514a.648.648 0 0 1-.167.242c-.085.084-.218.126-.401.126h-1.704ZM46.978 10.98h2.762c.796 0 1.39-.177 1.782-.532.392-.354.588-.854.588-1.499 0-.645-.193-1.151-.578-1.519-.385-.367-.983-.551-1.792-.551h-2.762v4.101Zm-2.252 7.294a.454.454 0 0 1-.333-.136.444.444 0 0 1-.137-.329V5.216a.468.468 0 0 1 .47-.483h5.073c1.58 0 2.826.36 3.74 1.083.914.722 1.371 1.773 1.371 3.153 0 .955-.238 1.748-.714 2.38-.477.632-1.114 1.09-1.91 1.373l2.86 4.934a.475.475 0 0 1 .058.212.377.377 0 0 1-.127.29.412.412 0 0 1-.284.117H53.01c-.223 0-.392-.058-.51-.175a1.6 1.6 0 0 1-.274-.348L49.7 13.167h-2.723v4.643a.447.447 0 0 1-.47.464h-1.782Zm-13.8-2.05h3.27c.706 0 1.24-.191 1.607-.572.365-.38.548-.841.548-1.383 0-.567-.186-1.038-.558-1.412-.373-.374-.905-.561-1.597-.561h-3.27v3.927Zm0-5.94H34c.692 0 1.21-.165 1.557-.494.345-.328.519-.757.519-1.286 0-.542-.174-.964-.52-1.267-.346-.303-.864-.455-1.556-.455h-3.075v3.502Zm-2.253 7.99a.454.454 0 0 1-.332-.136.444.444 0 0 1-.138-.329V5.216a.468.468 0 0 1 .47-.483h5.68c1.058 0 1.92.158 2.585.473.666.317 1.159.752 1.479 1.306.32.555.48 1.2.48 1.935 0 .49-.088.919-.264 1.286a2.884 2.884 0 0 1-.647.9 3.588 3.588 0 0 1-.754.542c.51.232.96.619 1.352 1.16.391.542.587 1.187.587 1.935 0 .774-.176 1.464-.529 2.07-.352.606-.875 1.08-1.567 1.422-.692.342-1.547.513-2.565.513h-5.837Z"/><script/></svg>