<svg xmlns="http://www.w3.org/2000/svg" height="56" viewBox="0 0 304 56"><path style="stroke:none;fill-rule:nonzero;fill:#000;fill-opacity:1" d="M242.79 43.395 229.468 1.223h-18.051L198.09 43.395h12.781l15.715-12.938 3.445 12.922h12.77Zm-28.4-13.258 6.051-22.692 6.051 22.692ZM26.96 21.664c3.966-.879 6.282-4.422 6.282-9.672 0-5.254-3.969-10.738-12.293-10.738H.336v42.14h23.168c8.258 0 11.445-5.312 11.445-11.433 0-5.305-3.527-9.602-8-10.297ZM10.278 10.422h8.22c2.202 0 3.718 1.45 3.718 3.473 0 2.023-1.516 3.539-3.719 3.539h-8.219Zm0 23.816v-7.582h9.504c2.649 0 4.153 1.703 4.153 3.79 0 2.277-1.579 3.792-4.153 3.792Zm104.524-21.675c0-2.215 2.465-3.149 5.59-3.239 4.117-.11 8.68 1.317 13.043 4.23l3.976-9.222c-4.637-2.988-10.64-4.11-16.672-4.11-10.664 0-16.914 6.274-16.93 13.266-.066 17.871 22.004 11.242 22.004 18.121 0 2-1.792 3.407-5.48 3.407-5.496 0-9.512-1.79-12.734-4.286l-4.211 9.266c4.242 2.887 9.91 4.484 16.633 4.484 11.168 0 16.746-5.812 16.71-14.18-.062-16.745-21.93-11.503-21.93-17.745ZM58.01 43.37V39.7c-1.898 2.153-5.425 4.43-10.534 4.43-6.938 0-10.028-3.926-10.028-9.55v-21.75h9.711v17.769c0 3.672 1.895 4.937 5.043 4.937 2.77 0 4.668-1.52 5.797-2.969V12.828h9.71v30.543H58Zm14.653 3.23c.691.372 1.645.57 2.402.57 2.215 0 3.598-.437 4.102-1.702l.687-1.645-12.113-30.988h10.219l6.871 19.36 6.941-19.36h10.278L88.309 47.742c-2.457 6.457-7.059 7.903-12.871 8.035-.891 0-3.157-.187-4.165-.504l1.391-8.664Zm65.93-18.53c0-8.844 6.687-16.005 16.21-16.005 9.024 0 15.579 6.641 15.579 17.016v2.09H148.69c.567 2.844 3.22 5.437 7.625 5.437 2.141 0 5.868-.941 7.563-2.593l4.101 6.066c-3.027 2.719-8.07 4.047-12.734 4.047-9.394 0-16.652-6.133-16.652-16.059Zm16.21-8.473c-4.218 0-5.863 3.035-6.245 5.254h12.55c-.254-2.153-1.832-5.254-6.304-5.254ZM173.22 1.199h9.71v42.18h-9.71Zm13.152 0h9.711v42.18h-9.71Zm77.856 38.633c-2.52 2.91-5.61 4.297-9.02 4.297-7.508 0-13.496-5.695-13.496-16.059 0-10.363 5.867-16.004 13.496-16.004 3.344 0 6.555 1.332 9.02 4.368V1.199h9.648v42.18h-9.648Zm0-7.09v-9.367c-1.262-1.645-3.782-2.71-5.86-2.71-3.851 0-6.687 2.843-6.687 7.398 0 4.546 2.836 7.46 6.687 7.46 2.078 0 4.598-1.144 5.86-2.78Zm11.312 6.703 4.031-6.703c2.274 2.024 7.125 4.047 10.723 4.047 2.906 0 4.098-.95 4.098-2.344 0-3.976-17.723-.066-17.723-12.328 0-5.379 4.605-10.058 13.055-10.058 5.105 0 9.457 1.648 12.738 4.043l-3.719 6.453c-1.828-1.77-5.293-3.352-8.953-3.352-2.27 0-3.848.945-3.848 2.207 0 3.543 17.723.067 17.723 12.586 0 5.813-5.105 10.121-13.867 10.121-5.422 0-11.035-1.836-14.258-4.68Zm0 0"/></svg>