<svg xmlns="http://www.w3.org/2000/svg" height="56" viewBox="0 0 252 56"><path style="stroke:none;fill-rule:nonzero;fill:#000;fill-opacity:1" d="M19.234 54.21c7.141 0 13.336-3.788 16.47-9.472l-8.161-4.664c-1.457 2.989-4.594 4.809-8.379 4.809-5.613 0-9.766-4.156-9.766-9.91 0-5.828 4.153-9.98 9.766-9.98 3.715 0 6.848 1.894 8.305 4.882l8.09-4.738c-2.989-5.61-9.184-9.399-16.325-9.399C8.16 15.738 0 24.118 0 34.973 0 45.832 8.16 54.21 19.234 54.21ZM67.43 16.759v4.3c-2.625-3.28-6.559-5.32-11.88-5.32-9.69 0-17.702 8.38-17.702 19.235 0 10.859 8.011 19.238 17.703 19.238 5.32 0 9.254-2.043 11.879-5.32v4.3h9.398V16.754H67.43ZM57.3 45.246c-5.757 0-10.054-4.152-10.054-10.273 0-6.118 4.297-10.274 10.055-10.274 5.828 0 10.129 4.156 10.129 10.274 0 6.12-4.301 10.273-10.13 10.273Zm55.302-43.059V21.06c-2.625-3.352-6.485-5.32-11.805-5.32-9.766 0-17.777 8.378-17.777 19.234 0 10.859 8.011 19.238 17.777 19.238 5.32 0 9.18-1.969 11.805-5.32v4.3H122V2.184h-9.398Zm-10.055 43.06c-5.832 0-10.129-4.153-10.129-10.274 0-6.118 4.297-10.274 10.129-10.274 5.754 0 10.055 4.156 10.055 10.274 0 6.12-4.301 10.273-10.055 10.273Zm37.086-22.224v-6.265h-9.399V53.19h9.399V35.773c0-7.648 6.191-9.832 11.074-9.253V16.03c-4.59 0-9.18 2.04-11.074 6.992Zm22.797 15.813h27.468c.22-1.238.364-2.477.364-3.863 0-10.707-7.649-19.235-18.434-19.235-11.441 0-19.234 8.38-19.234 19.235 0 10.859 7.722 19.238 19.965 19.238 6.992 0 12.457-2.844 15.882-7.797l-7.578-4.371c-1.601 2.11-4.515 3.64-8.16 3.64-4.957 0-8.96-2.038-10.273-6.847Zm-.145-7.285c1.09-4.664 4.516-7.36 9.543-7.36 3.934 0 7.867 2.114 9.035 7.36Zm34.176 21.64h9.398V0h-9.398Zm34.976 1.02c10.711 0 19.31-8.379 19.31-19.238 0-10.856-8.599-19.235-19.31-19.235-10.707 0-19.234 8.38-19.234 19.235 0 10.859 8.527 19.238 19.234 19.238Zm0-9.184c-5.535 0-9.835-4.152-9.835-10.054 0-5.899 4.3-10.051 9.835-10.051 5.614 0 9.91 4.152 9.91 10.05 0 5.907-4.296 10.06-9.91 10.06Zm0 0"/></svg>