<svg xmlns="http://www.w3.org/2000/svg" height="56" viewBox="0 0 763 133" fill="none"><path d="M0 16.54C0 7.404 7.405 0 16.54 0h99.235c9.135 0 16.539 7.405 16.539 16.54v99.235c0 9.135-7.404 16.539-16.539 16.539H16.539C7.405 132.314 0 124.91 0 115.775V16.539Z" fill="#000"/><path d="M20.674 21.119c0-2.121 2.489-3.284 4.136-1.933L73.374 58.99c1.827 1.497.76 4.44-1.609 4.44H51.817a2.54 2.54 0 0 1-1.485-.479l-7.958-5.737c-1.67-1.205-4.012-.02-4.012 2.028v20.585a2.5 2.5 0 0 1-.882 1.903L24.845 92.475c-1.639 1.394-4.17.238-4.17-1.904V21.12Z" fill="#FFF"/><path d="M111.64 113.263c0 2.121-2.488 3.284-4.136 1.933L58.94 75.392c-1.826-1.497-.76-4.44 1.61-4.44h19.947a2.54 2.54 0 0 1 1.485.479l7.958 5.737c1.67 1.205 4.012.02 4.012-2.028V54.555c0-.732.323-1.427.883-1.903l12.634-10.745c1.639-1.394 4.171-.238 4.171 1.904v69.452Z" fill="#FFF"/><path d="M170.178 94.657v-56.7h40.5v11.34h-27.783v10.45h25.272v11.34h-25.272v12.311h27.783v11.26h-40.5Zm47.819 0V52.294h11.178l.972 4.05h.324c2.349-2.754 6.075-4.779 11.583-4.779 9.396 0 15.714 5.832 15.714 15.228v27.864h-12.474V70.681c0-4.86-2.187-7.776-7.128-7.776-4.455 0-7.695 3.16-7.695 8.262v23.49h-12.474Zm65.533 19.278c-11.421 0-19.035-6.075-19.278-15.633h12.231c.324 2.835 3.159 4.941 7.047 4.941 5.508 0 8.262-2.916 8.262-6.723v-5.913h-.324c-2.025 2.43-5.265 4.78-11.259 4.78-10.692 0-17.172-9.235-17.172-21.87 0-12.718 6.48-21.952 17.172-21.952 5.994 0 9.234 2.35 11.259 4.78h.324l1.296-4.05h11.178v44.387c0 10.611-8.91 17.253-20.736 17.253Zm.486-29.484c6.318 0 8.343-5.022 8.343-10.935S290.172 62.5 284.016 62.5c-6.156 0-8.343 5.103-8.343 11.016s2.025 10.935 8.343 10.935Zm40.356 10.935c-9.558 0-14.823-5.75-14.823-13.284 0-7.857 5.346-13.04 17.01-13.04 3.159 0 7.371.647 9.072 1.214v-3.483c0-2.916-1.863-5.184-6.48-5.184-3.888 0-6.156 2.106-6.156 4.698h-11.664c0-7.938 5.751-14.742 18.225-14.742 11.583 0 18.549 6.4 18.549 15.228v27.864h-11.178l-.891-3.807h-.324c-2.349 2.673-6.075 4.536-11.34 4.536Zm3.159-9.72c5.103 0 8.1-2.997 8.1-6.48v-.405c-2.592-1.053-5.184-1.377-7.614-1.377-4.05 0-6.156 1.782-6.156 4.05 0 2.43 1.944 4.212 5.67 4.212Zm46.333 28.269c-11.421 0-19.035-6.075-19.278-15.633h12.231c.324 2.835 3.159 4.941 7.047 4.941 5.508 0 8.262-2.916 8.262-6.723v-5.913h-.324c-2.025 2.43-5.265 4.78-11.259 4.78-10.692 0-17.172-9.235-17.172-21.87 0-12.718 6.48-21.952 17.172-21.952 5.994 0 9.234 2.35 11.259 4.78h.324l1.296-4.05H394.6v44.387c0 10.611-8.91 17.253-20.736 17.253Zm.486-29.484c6.318 0 8.343-5.022 8.343-10.935S380.506 62.5 374.35 62.5c-6.156 0-8.343 5.103-8.343 11.016s2.025 10.935 8.343 10.935Zm46.512 10.935c-13.365 0-20.979-9.72-20.979-21.87 0-11.988 6.966-21.95 20.736-21.95 12.96 0 20.25 9.152 20.25 20.654v4.617H412.6c.081 4.941 2.592 8.424 8.262 8.424 4.617 0 6.642-2.268 7.371-4.212h12.069c-1.134 7.614-7.857 14.337-19.44 14.337Zm-8.181-26.406h15.471c-.243-4.05-2.592-7.209-7.533-7.209-5.346 0-7.695 3.16-7.938 7.21Zm58.558 25.677v-56.7h40.5v11.34h-27.783v12.07h25.272v11.34h-25.272v21.95h-12.717Zm60.616.73c-9.558 0-14.823-5.752-14.823-13.285 0-7.857 5.346-13.04 17.01-13.04 3.159 0 7.371.647 9.072 1.214v-3.483c0-2.916-1.863-5.184-6.48-5.184-3.888 0-6.156 2.106-6.156 4.698h-11.664c0-7.938 5.751-14.742 18.225-14.742 11.583 0 18.549 6.4 18.549 15.228v27.864H544.41l-.891-3.807h-.324c-2.349 2.673-6.075 4.536-11.34 4.536Zm3.159-9.72c5.103 0 8.1-2.998 8.1-6.48v-.406c-2.592-1.053-5.184-1.377-7.614-1.377-4.05 0-6.156 1.782-6.156 4.05 0 2.43 1.944 4.212 5.67 4.212Zm47.144 9.72c-13.527 0-21.303-9.073-21.303-21.952 0-12.798 7.452-21.87 20.979-21.87 12.555 0 19.035 7.614 19.602 17.415h-12.555c-.405-3.726-2.997-6.48-7.047-6.48-5.265 0-8.262 3.321-8.262 10.935 0 7.695 2.997 11.016 8.262 11.016 4.05 0 6.642-2.754 7.047-6.48h12.555c-.567 9.801-6.966 17.415-19.278 17.415Zm43.965 0c-9.801 0-14.175-5.833-14.175-13.528V62.905h-6.885v-10.61h7.452v-8.83l11.097-2.268h.81v11.097h10.125v10.611h-10.125v15.957c0 3.97 1.701 5.67 5.427 5.67a11.55 11.55 0 0 0 4.05-.729h.81v10.368c-1.296.486-4.617 1.215-8.586 1.215Zm35.37 0c-13.77 0-21.141-9.154-21.141-21.87 0-12.718 7.533-21.952 21.141-21.952 13.608 0 21.141 9.234 21.141 21.951 0 12.636-7.371 21.87-21.141 21.87Zm0-10.936c5.184 0 8.424-3.24 8.424-10.935s-3.24-11.016-8.424-11.016c-5.184 0-8.424 3.402-8.424 11.016 0 7.695 3.321 10.935 8.424 10.935Zm27.237 10.206V52.294h10.368l.972 6.156h.324c1.863-3.726 5.427-6.885 10.854-6.885h2.916v11.421h-4.05c-5.913 0-9.72 3.97-9.72 10.773v20.898H688.73Zm37.72 18.549v-.81l6.075-17.739h-2.106l-13.446-41.553v-.81h12.798l8.586 30.051h.324l9.153-30.05h13.446v.81l-21.303 60.101H726.45Z" fill="#000"/></svg>