<svg xmlns="http://www.w3.org/2000/svg" height="56" viewBox="0 0 299 56"><path style="stroke:none;fill-rule:nonzero;fill:#000;fill-opacity:1" d="M43.23 15.36C39.086 9.761 32.602 6.69 24.676 6.69c-8.106 0-14.41 2.891-18.73 8.668C2.702 19.691.901 25.473.901 31.43c0 5.962 1.801 11.919 5.043 16.255 4.14 5.597 10.625 8.488 18.73 8.488 7.927 0 14.41-2.89 18.555-8.488 3.243-4.336 5.043-10.114 5.043-16.254 0-5.957-1.8-11.739-5.043-16.07ZM24.676 45.155c-4.504 0-7.746-1.808-9.906-5.597-1.98-3.434-1.98-7.407-1.98-8.13 0-.722.179-4.695 1.98-8.124 1.98-3.614 5.402-5.418 9.906-5.418 4.504 0 7.746 1.804 9.726 5.418 1.98 3.43 1.98 7.402 1.98 8.125 0 .543 0 13.726-11.706 13.726Zm61.422-32.144c-3.063-3.614-7.746-5.598-13.688-5.598H55.297c-.719 0-1.442.543-1.442 1.445v45.145c0 .723.54 1.445 1.442 1.445h9.008c.718 0 1.437-.543 1.437-1.445V39.559h7.567c4.144 0 8.285-1.625 11.347-4.516 3.422-3.07 5.223-7.223 5.223-11.738-.18-3.614-1.442-7.403-3.781-10.293Zm-13.149 15.71h-7.386V18.43h7.207c.539 0 5.402.18 5.402 5.054 0 1.809-1.082 5.059-5.223 5.239Zm56.016-21.128h-33.68c-.722 0-1.441.543-1.441 1.445v8.125c0 .723.539 1.445 1.441 1.445h10.805v35.575c0 .722.543 1.445 1.441 1.445h9.008c.719 0 1.441-.543 1.441-1.445V18.609h10.985c.722 0 1.441-.543 1.441-1.445V8.86c-.18-.722-.719-1.265-1.441-1.265Zm18.012 0h-8.825c-.718 0-1.441.543-1.441 1.445v45.145c0 .722.539 1.445 1.441 1.445h8.825c.722 0 1.441-.543 1.441-1.445V9.039c0-.902-.54-1.445-1.441-1.445Zm76.011-6.32c-.18-.36-.539-.36-.898-.36h-9.008c-.719 0-1.441.54-1.621 1.262l-11.348 33.41-9.187-26.727c-.18-.722-.899-1.265-1.621-1.265h-5.942c-.722 0-1.441.543-1.62 1.265l-9.188 26.727-7.024-20.227c-.18-.722-.902-1.265-1.62-1.265h-8.829c-.36 0-.719.183-.898.363-.18.36-.18.723-.18 1.082l13.328 38.645c.18.722.902 1.265 1.621 1.265h7.203c.723 0 1.442-.543 1.621-1.265l8.47-24.739 8.464 24.739c.18.722.898 1.265 1.621 1.265h7.203c.723 0 1.442-.543 1.621-1.265l17.832-51.825c.36-.363.18-.722 0-1.086ZM255.23 18.43c.723 0 1.442-.543 1.442-1.446V8.86c0-.722-.54-1.445-1.442-1.445h-27.199c-.719 0-.898.18-1.078.902l-1.082 3.07-.36 1.266-1.8 5.055c-.18.723-.363 1.984-.363 2.707v33.59c0 .723.543 1.445 1.441 1.445h30.621c.723 0 1.442-.543 1.442-1.445v-8.125c0-.723-.54-1.445-1.442-1.445H235.06V37.21h12.425c.723 0 1.442-.543 1.442-1.445V27.64c0-.723-.54-1.446-1.442-1.446H235.06V18.43Zm37.106 12.097c2.703-1.625 4.324-4.515 4.324-8.125 0-7.222-4.504-14.808-17.473-14.808h-14.59c-.902 0-1.62.722-1.62 1.625v44.605c0 .903.718 1.625 1.62 1.625h16.93c12.79 0 17.473-7.765 17.473-14.808 0-3.43-2.16-8.309-6.664-10.114ZM274.863 18.43h5.223c2.164 0 3.605.543 4.324 1.804.54.903.54 1.989.54 1.989 0 1.445-.72 3.972-4.864 3.972h-5.402V18.43Zm7.387 26.004h-7.387v-8.125h7.567c1.98 0 3.242.718 4.14 1.984.543 1.082.723 1.988.723 2.348-.18.18-.36 3.793-5.043 3.793Zm0 0"/></svg>