<svg xmlns="http://www.w3.org/2000/svg" height="56" xml:space="preserve" style="fill-rule:evenodd;clip-rule:evenodd;stroke-linejoin:round;stroke-miterlimit:2" viewBox="5.39 3.78 1680.2 428.7"><path style="fill:none" d="M0 0h2560v1440H0z" transform="scale(.66054 .30296)"/><path d="M0 428.699h425.5V3.2H0v425.499Zm141.8-283.5h141.8v141.7h.1-141.9v-141.7Z" style="fill:#000;fill-rule:nonzero" transform="translate(5.395 .58)"/><path d="M0-19.6c2.9 0 5.8 1.2 7.5 3.3l5.8-4.6c-3-3.8-7.7-6.4-13.5-6.4-9.6 0-18.1 6.9-18.1 17.4C-18.3.7-9.8 7.6-.2 7.7c5.7 0 10.4-2.6 13.5-6.4L7.5-3.3C5.8-1.3 3 0 0 0c-5.8 0-9.9-4.2-9.9-9.8 0-5.7 4.1-9.8 9.9-9.8" style="fill:#000;fill-rule:nonzero" transform="translate(583.297 408.58)"/><path d="M0 19.5c-5.1 0-9.3-4-9.3-9.8C-9.3 4-5.1-.1 0-.1 5.1-.1 9.4 4 9.4 9.7c0 5.9-4.3 9.8-9.4 9.8M-.1-7.7c-9.4 0-17.6 6.9-17.6 17.4 0 10.6 8.2 17.5 17.6 17.5 9.4 0 17.7-7 17.7-17.5S9.3-7.7-.1-7.7" style="fill:#000;fill-rule:nonzero" transform="translate(618.597 388.98)"/><path d="M0-34.1c-3.4 0-8.6 1.9-10.3 6.1v-5.3h-8.3V-.1h8.3v-17.6c0-6.4 4.7-8.6 8.5-8.6 3.7 0 6.9 2.9 6.9 8.2V0h8.3v-18.6C13.4-28.2 8.6-34 0-34.1" style="fill:#000;fill-rule:nonzero" transform="translate(662.297 415.28)"/><path d="M0-45.4h-8.3v12.2h-6v6.5h6V0H0v-26.7h7v-6.5H0v-12.2Z" style="fill:#000;fill-rule:nonzero" transform="translate(695.997 415.38)"/><path d="M0-5.7C1-10.8 4.6-13 9-13c4.6 0 8.2 2.7 8.7 7.3H0Zm9.1-14.6c-9.5 0-17.4 6.8-17.4 17.4 0 10.4 7.5 17.5 17.4 17.5 6 0 11.9-2.7 15-7.5l-5.6-4.2c-2 2.7-5.4 4.3-9 4.3C4.5 7.2.9 4.7 0 .1h25.8c0-1.3.1-2.3.2-3.2 0-10.4-7.4-17.2-16.9-17.2" style="fill:#000;fill-rule:nonzero" transform="translate(714.997 401.58)"/><path d="M0-34.1c-3.4 0-8.6 1.9-10.3 6.1v-5.3h-8.3V-.1h8.3v-17.6c0-6.4 4.7-8.6 8.5-8.6 3.7 0 6.9 2.9 6.9 8.2V0h8.3v-18.6C13.4-28.2 8.7-34 0-34.1" style="fill:#000;fill-rule:nonzero" transform="translate(766.697 415.28)"/><path d="M0-45.4h-8.3v12.2h-6v6.5h6V0H0v-26.7h7v-6.5H0v-12.2Z" style="fill:#000;fill-rule:nonzero" transform="translate(800.497 415.38)"/><path d="M.1-10.6c2.9 0 5.4 2.2 5.4 5.3C5.5-2.2 3 0 .1 0c-3 0-5.5-2.2-5.5-5.3 0-3.1 2.5-5.3 5.5-5.3" style="fill:#000;fill-rule:nonzero" transform="matrix(-1 0 0 1 816.497 416.08)"/><path d="M0-19.6c2.9 0 5.8 1.2 7.5 3.3l5.8-4.6c-3-3.8-7.7-6.4-13.5-6.4-9.6 0-18.1 6.9-18.1 17.4C-18.3.7-9.9 7.6-.2 7.7c5.7 0 10.4-2.6 13.5-6.4L7.5-3.3C5.8-1.3 3 0 0 0c-5.8 0-9.9-4.2-9.9-9.8 0-5.7 4.1-9.8 9.9-9.8" style="fill:#000;fill-rule:nonzero" transform="translate(863.497 408.58)"/><path d="M0-18.1v-7.1h-8.3V8H0V-3.6c0-9.3 3-14.7 8.4-14.7 1.2 0 2.9.2 4.8 1.2l1.6-7.8c-1.3-.7-3.4-1.1-5.3-1.2-4.1 0-7.7 2.4-9.5 8" style="fill:#000;fill-rule:nonzero" transform="translate(891.897 407.28)"/><path d="M0-5.7C1-10.8 4.6-13 9-13c4.6 0 8.2 2.7 8.7 7.3H0Zm9.1-14.6c-9.5 0-17.4 6.8-17.4 17.4 0 10.4 7.5 17.5 17.4 17.5 6 0 11.9-2.7 15-7.5l-5.6-4.2c-2 2.7-5.4 4.3-9 4.3C4.5 7.2.9 4.7 0 .1h25.8c.1-1.3.1-2.3.2-3.2 0-10.4-7.4-17.2-16.9-17.2" style="fill:#000;fill-rule:nonzero" transform="translate(917.797 401.58)"/><path d="M0 19.5c-5.4 0-9.5-4.5-9.5-9.8 0-5.4 4.1-9.8 9.4-9.8C4.8-.1 9.5 4 9.5 9.7c0 5.6-4.4 9.9-9.5 9.8M9.7-2.2C7.5-5.7 3.1-7.7-1.5-7.7c-9.4 0-16.2 7.4-16.2 17.4 0 10.3 7.1 17.5 16 17.5 4.8 0 9.2-2.4 11.4-6v5.2H18V-6.8H9.7v4.6Z" style="fill:#000;fill-rule:nonzero" transform="translate(966.798 388.98)"/><path d="M0-45.4h-8.3v12.2h-6v6.5h6V0H0v-26.7h7v-6.5H0v-12.2Z" style="fill:#000;fill-rule:nonzero" transform="translate(1005.493 415.38)"/><path style="fill:#000" d="M1013.2 17.1h8.3v33.2h-8.3z" transform="translate(5.395 365.08)"/><path d="M-.1-10.2c2.9 0 5.4 2.2 5.4 5.1C5.3-2.2 2.8 0-.1 0c-3 0-5.3-2.3-5.3-5.1 0-3 2.3-5.1 5.3-5.1" style="fill:#000;fill-rule:nonzero" transform="matrix(-1 0 0 1 1022.593 375.48)"/><path d="m0 12.4-8.8-22.8h-8.9l13.9 33.2h7.5l14-33.2h-9L0 12.4Z" style="fill:#000;fill-rule:nonzero" transform="translate(1049.793 392.58)"/><path d="M0-5.7C1-10.8 4.6-13 9-13c4.6 0 8.2 2.7 8.7 7.3H0Zm9-14.6c-9.5 0-17.4 6.8-17.4 17.4C-8.4 7.5-.9 14.6 9 14.6c6 0 11.9-2.7 15-7.5l-5.6-4.2c-2 2.7-5.4 4.3-9 4.3C4.4 7.2.8 4.7-.1.1h25.8c.1-1.3.2-2.3.2-3.2 0-10.4-7.4-17.2-16.9-17.2" style="fill:#000;fill-rule:nonzero" transform="translate(1078.393 401.58)"/><path d="M.1-10.6c2.9 0 5.4 2.2 5.4 5.3C5.5-2.2 3 0 .1 0c-3 0-5.5-2.2-5.5-5.3 0-3.1 2.5-5.3 5.5-5.3" style="fill:#000;fill-rule:nonzero" transform="matrix(-1 0 0 1 1115.893 416.08)"/><path d="M0-19.6c2.9 0 5.8 1.2 7.5 3.3l5.8-4.6c-3-3.8-7.7-6.4-13.5-6.4-9.6 0-18.1 6.9-18.1 17.4C-18.3.7-9.8 7.6-.2 7.7c5.7 0 10.4-2.6 13.5-6.4L7.5-3.3C5.8-1.3 3 0 0 0c-5.8 0-9.9-4.2-9.9-9.8 0-5.7 4.1-9.8 9.9-9.8" style="fill:#000;fill-rule:nonzero" transform="translate(1162.793 408.58)"/><path d="M0 19.5c-5.1 0-9.3-4-9.3-9.8C-9.3 4-5.1-.1 0-.1 5.1-.1 9.4 4 9.4 9.7c0 5.9-4.3 9.8-9.4 9.8M0-7.7c-9.4 0-17.6 6.9-17.6 17.4 0 10.6 8.2 17.5 17.6 17.5 9.4 0 17.7-7 17.7-17.5S9.4-7.7 0-7.7" style="fill:#000;fill-rule:nonzero" transform="translate(1198.093 388.98)"/><path d="M0 36.8c-5.1 0-9.3-4.3-9.3-9.9 0-5.6 4.2-9.7 9.3-9.7 4.8 0 9.6 3.9 9.6 9.7 0 5.8-4.6 9.9-9.6 9.9m9.7-22C7.4 11.3 2.8 9.6-1.4 9.6c-8.8 0-16.3 6.7-16.3 17.4 0 10.6 7.6 17.5 16.4 17.5 4 0 8.7-1.8 11-5.3v4.4H18V-7.7H9.7v22.5Z" style="fill:#000;fill-rule:nonzero" transform="translate(1238.993 371.78)"/><path d="M0-5.7C1-10.8 4.6-13 9-13c4.6 0 8.2 2.7 8.7 7.3H0Zm9-14.6c-9.5 0-17.4 6.8-17.4 17.4C-8.4 7.5-.9 14.6 9 14.6c6 0 11.9-2.7 15-7.5l-5.6-4.2c-2 2.7-5.4 4.3-9 4.3C4.4 7.2.8 4.7-.1.1h25.8c.1-1.3.2-2.3.2-3.2 0-10.4-7.4-17.2-16.9-17.2" style="fill:#000;fill-rule:nonzero" transform="translate(1272.993 401.58)"/><path d="M.1-10.6c2.9 0 5.4 2.2 5.4 5.3C5.5-2.2 3 0 .1 0c-3 0-5.5-2.2-5.5-5.3 0-3.1 2.5-5.3 5.5-5.3" style="fill:#000;fill-rule:nonzero" transform="matrix(-1 0 0 1 1310.493 416.08)"/><path d="M0-19.6c2.9 0 5.8 1.2 7.5 3.3l5.8-4.6c-3-3.8-7.7-6.4-13.5-6.4-9.6 0-18.1 6.9-18.1 17.4C-18.3.7-9.9 7.6-.2 7.7c5.7 0 10.4-2.6 13.5-6.4L7.5-3.3C5.8-1.3 3 0 0 0c-5.8 0-9.9-4.2-9.9-9.8 0-5.7 4.1-9.8 9.9-9.8" style="fill:#000;fill-rule:nonzero" transform="translate(1357.494 408.58)"/><path d="M0 19.5c-5.1 0-9.3-4-9.3-9.8C-9.3 4-5.1-.1 0-.1 5.1-.1 9.4 4 9.4 9.7c0 5.9-4.3 9.8-9.4 9.8M-.1-7.7c-9.4 0-17.6 6.9-17.6 17.4 0 10.6 8.2 17.5 17.6 17.5 9.4 0 17.7-7 17.7-17.5S9.3-7.7-.1-7.7" style="fill:#000;fill-rule:nonzero" transform="translate(1392.694 388.98)"/><path d="M0-34.1c-3.4 0-8.6 1.9-10.3 6.1v-5.3h-8.3V-.1h8.3v-17.6c0-6.4 4.7-8.6 8.5-8.6 3.7 0 6.9 2.9 6.9 8.2V0h8.3v-18.6C13.4-28.2 8.7-34 0-34.1" style="fill:#000;fill-rule:nonzero" transform="translate(1436.294 415.28)"/><path d="m0-5.4-5.3-1.4c-2-.4-3.6-1.4-3.6-3.1 0-2.1 1.7-3.6 4.3-3.6 2.3 0 4.4 1.4 4.4 3.7h7.9c.1-7.4-6.6-10.4-12.5-10.4-7.3 0-12.4 4.7-12.4 9.9 0 4.2 1.9 8.2 9.4 10.2L-3.4 1C-.9 1.6.5 2.4.5 4.3c0 2.2-2.1 3.8-5.4 3.8-3.5 0-5.5-2.1-5.5-4.4h-7.8c.1 7.2 6.7 11.1 13.5 11.1C2 14.8 8.8 11.1 8.8 4.3c0-3.1-1.3-7.8-8.8-9.7" style="fill:#000;fill-rule:nonzero" transform="translate(1474.794 401.38)"/><path d="M0 1.6c0 6.5-4.7 8.6-8.5 8.6-3.7 0-6.9-2.8-6.9-8.1v-18.3h-8.3V2.4c0 9.6 4.8 15.4 13.3 15.4 3.3 0 8.6-1.8 10.3-6V17h8.3v-33.2H0V1.6Z" style="fill:#000;fill-rule:nonzero" transform="translate(1514.194 398.38)"/><path style="fill:#000" d="M1526.4 17.1h8.3v51.3h-8.3z" transform="translate(5.395 346.98)"/><path d="M0-45.4h-8.3v12.2h-6v6.5h6V0H0v-26.7h7v-6.5H0v-12.2Z" style="fill:#000;fill-rule:nonzero" transform="translate(1560.894 415.38)"/><path d="M-.1-10.2c2.9 0 5.4 2.2 5.4 5.1C5.3-2.2 2.8 0-.1 0c-3 0-5.3-2.3-5.3-5.1 0-3 2.3-5.1 5.3-5.1" style="fill:#000;fill-rule:nonzero" transform="matrix(-1 0 0 1 1577.894 375.48)"/><path style="fill:#000" d="M1568.5 17.1h8.3v33.2h-8.3z" transform="translate(5.395 365.08)"/><path d="M0-34.1c-3.4 0-8.6 1.9-10.3 6.1v-5.3h-8.3V-.1h8.3v-17.6c0-6.4 4.7-8.6 8.5-8.6 3.7 0 6.9 2.9 6.9 8.2V0h8.3v-18.6C13.4-28.2 8.6-34 0-34.1" style="fill:#000;fill-rule:nonzero" transform="translate(1610.194 415.28)"/><path d="M0 3.4c-5.1 0-9.3-4.3-9.3-9.9 0-5.6 4.2-9.7 9.3-9.7 4.8 0 9.6 3.9 9.6 9.7C9.6-.7 5 3.4 0 3.4m9.8-22.1C7.5-22.1 3-23.9-1.3-23.9c-8.8 0-16.3 6.7-16.3 17.4C-17.6 4.1-10 11-1.2 11c4 0 8.7-1.8 11-5.2v.8c0 9.6-4 13.2-10.4 13.2-3.6 0-7.3-2.1-8.9-5.3l-6.8 3.1c2.9 6 8.9 9.7 15.7 9.7C10.7 27.3 18 20.8 18 5.9V-23H9.8v4.3Z" style="fill:#000;fill-rule:nonzero" transform="translate(1648.394 405.18)"/><path d="M.1-10.6c2.9 0 5.4 2.2 5.4 5.3C5.5-2.2 3 0 .1 0c-3 0-5.5-2.2-5.5-5.3 0-3.1 2.5-5.3 5.5-5.3" style="fill:#000;fill-rule:nonzero" transform="matrix(-1 0 0 1 1680.194 416.08)"/><path d="M0-80.8v34.4h22.4c11.2 0 15.3-9 15.3-17.3s-4.1-17.1-15.3-17.1H0ZM-34 29.7v-140.2h58c33 0 48 23.4 48 46.8 0 23.6-15.1 46.6-48 46.6H0v46.8h-34Z" style="fill:#000;fill-rule:nonzero" transform="translate(602.997 255.38)"/><path d="M0-140.2h28.7V0h-35l1.1-70.5-28.3 54.2h-25.6l-28.5-54.2L-86.5 0h-35v-140.2h28.3L-46.3-55 0-140.2Z" style="fill:#000;fill-rule:nonzero" transform="translate(817.497 285.08)"/></svg>