<svg xmlns="http://www.w3.org/2000/svg" height="56" viewBox="0 0 304 32"><path style="stroke:none;fill-rule:evenodd;fill:#000;fill-opacity:1" d="M0 7.152v18.164h3.664V10.641h6.895V7.152Zm21.043 9.184c0 2.668.934 4.91 2.785 6.742 1.848 1.828 4.094 2.742 6.746 2.742 1.57 0 3.028-.336 4.395-1.027 1.363-.672 2.465-1.605 3.304-2.8l-2.617-1.997a5.604 5.604 0 0 1-2.203 1.832 6.74 6.74 0 0 1-2.879.649c-1.515 0-2.824-.465-3.887-1.399-1.085-.914-1.757-2.09-2.019-3.527h14.895c.058-.504.078-.914.078-1.254a9.672 9.672 0 0 0-.692-3.621 9.795 9.795 0 0 0-1.926-3.024c-.804-.859-1.796-1.55-2.953-2.07a9.177 9.177 0 0 0-3.718-.766c-1.778 0-3.368.426-4.805 1.305a9.16 9.16 0 0 0-3.328 3.492 9.81 9.81 0 0 0-1.176 4.723Zm14.86-1.68H24.8c.336-1.324 1.008-2.39 2.015-3.23.993-.84 2.188-1.25 3.57-1.25 1.423 0 2.637.43 3.665 1.27 1.011.859 1.625 1.921 1.851 3.21Zm16.683-7.504v18.164h3.664V16.06c0-3.848 1.55-5.77 4.633-5.77 2.972 0 4.449 1.828 4.449 5.508v9.52h3.7V15.03c0-2.746-.673-4.8-2.036-6.164-1.367-1.363-3.195-2.05-5.457-2.05-1.215 0-2.227.183-3.047.578-.824.39-1.57.972-2.242 1.714V7.152Zm29.113 9.184c0 1.309.242 2.539.746 3.715.508 1.18 1.18 2.183 2.04 3.027.84.84 1.867 1.512 3.046 1.996 1.176.504 2.45.746 3.774.746 2.562 0 4.582-.875 6.093-2.648v2.144h3.665V0h-3.665v9.484c-1.55-1.773-3.59-2.668-6.093-2.668a9.637 9.637 0 0 0-3.735.727c-1.18.504-2.207 1.156-3.066 1.996-.86.84-1.535 1.867-2.04 3.047a9.444 9.444 0 0 0-.765 3.75Zm3.625 0c0-1.7.578-3.117 1.719-4.293 1.14-1.176 2.562-1.754 4.262-1.754 1.703 0 3.12.598 4.28 1.774 1.161 1.175 1.74 2.613 1.74 4.273 0 1.66-.579 3.082-1.72 4.258-1.14 1.176-2.578 1.773-4.3 1.773-1.7 0-3.121-.578-4.262-1.738-1.14-1.156-1.719-2.594-1.719-4.293Zm28.797 0c0 2.668.934 4.91 2.785 6.742 1.852 1.828 4.094 2.742 6.746 2.742 1.57 0 3.032-.336 4.395-1.027 1.363-.672 2.465-1.605 3.308-2.8l-2.617-1.997a5.588 5.588 0 0 1-2.207 1.832 6.727 6.727 0 0 1-2.879.649c-1.511 0-2.82-.465-3.886-1.399-1.082-.914-1.758-2.09-2.016-3.527h14.895c.054-.504.074-.914.074-1.254a9.672 9.672 0 0 0-2.617-6.645c-.805-.859-1.793-1.55-2.954-2.07a9.15 9.15 0 0 0-3.718-.766c-1.778 0-3.364.426-4.805 1.305a9.18 9.18 0 0 0-3.324 3.492 9.77 9.77 0 0 0-1.18 4.723Zm14.86-1.68h-11.102c.336-1.324 1.008-2.39 2.02-3.23.988-.84 2.183-1.25 3.57-1.25 1.418 0 2.633.43 3.66 1.27 1.012.859 1.625 1.921 1.851 3.21Zm16.687-7.504v18.164h3.66V10.641h6.899V7.152h-10.563Zm22.926 13.461-1.98 2.836c2.073 1.586 4.39 2.371 6.952 2.371 2.055 0 3.7-.504 4.914-1.511 1.215-1.008 1.829-2.372 1.829-4.11 0-.875-.164-1.66-.52-2.312-.355-.653-.805-1.215-1.348-1.59a10.1 10.1 0 0 0-1.832-.988c-.66-.274-1.332-.52-2.015-.727a19.67 19.67 0 0 1-1.813-.637c-.543-.222-.972-.445-1.367-.765a1.392 1.392 0 0 1-.523-1.117c0-.543.226-.973.675-1.348.45-.352 1.102-.54 1.961-.54 1.496 0 2.899.466 4.188 1.419l1.941-2.727c-1.699-1.363-3.754-2.05-6.164-2.05-1.89 0-3.383.519-4.527 1.585-1.137 1.063-1.719 2.426-1.719 4.106 0 .879.168 1.644.524 2.3.355.649.804 1.137 1.367 1.489.539.355 1.156.676 1.828.914.676.266 1.347.488 2.02.656.675.168 1.292.352 1.85.54.544.206.993.468 1.345.784.355.336.523.75.523 1.235 0 .617-.262 1.12-.785 1.492-.54.375-1.29.562-2.242.562-1.867 0-3.567-.617-5.082-1.867Zm24.832-13.46V32h3.664v-8.828c1.512 1.773 3.531 2.648 6.094 2.648a9.47 9.47 0 0 0 3.773-.746 9.557 9.557 0 0 0 3.066-1.996 9.585 9.585 0 0 0 2.02-3.027c.5-1.172.754-2.438.746-3.715a9.358 9.358 0 0 0-.746-3.75 9.46 9.46 0 0 0-2.059-3.047c-.859-.84-1.886-1.492-3.062-1.996a9.67 9.67 0 0 0-3.738-.727c-2.543 0-4.582.895-6.094 2.668V7.152Zm3.793 9.183c0-1.7.582-3.117 1.722-4.293 1.141-1.176 2.54-1.754 4.243-1.754 1.699 0 3.12.578 4.261 1.754 1.14 1.176 1.72 2.594 1.72 4.293 0 1.7-.58 3.137-1.72 4.293-1.14 1.16-2.582 1.738-4.3 1.738-1.72 0-3.141-.578-4.243-1.754-1.12-1.18-1.683-2.597-1.683-4.277Zm27.097 0c0 1.309.243 2.539.746 3.715.504 1.18 1.18 2.183 2.04 3.027.87.86 1.91 1.54 3.046 1.996 1.176.504 2.45.746 3.774.746 2.562 0 4.578-.875 6.094-2.648v2.144h3.664V7.152h-3.664v2.332c-1.551-1.773-3.59-2.668-6.094-2.668a9.76 9.76 0 0 0-3.738.727c-1.176.504-2.204 1.156-3.063 1.996-.863.84-1.535 1.867-2.039 3.047a9.444 9.444 0 0 0-.766 3.75Zm3.625 0c0-1.7.579-3.117 1.72-4.293 1.14-1.176 2.562-1.754 4.26-1.754 1.704 0 3.122.598 4.282 1.774 1.156 1.175 1.738 2.613 1.738 4.273 0 1.66-.582 3.082-1.718 4.258-1.141 1.176-2.582 1.773-4.301 1.773-1.7 0-3.121-.578-4.262-1.738-1.14-1.156-1.719-2.594-1.719-4.293Zm28.797 0a9.199 9.199 0 0 0 1.29 4.762 9.22 9.22 0 0 0 3.476 3.453 9.405 9.405 0 0 0 4.766 1.27c1.703 0 3.27-.41 4.73-1.231a9.454 9.454 0 0 0 3.457-3.285l-3.066-1.797a5.808 5.808 0 0 1-2.114 2.094 5.817 5.817 0 0 1-2.933.765c-1.66 0-3.082-.597-4.242-1.773-1.157-1.176-1.735-2.578-1.735-4.219 0-1.645.578-3.063 1.715-4.277 1.14-1.211 2.543-1.809 4.188-1.809 1.027 0 2 .242 2.898.746a5.904 5.904 0 0 1 2.113 2.016l3.102-1.774a9.408 9.408 0 0 0-3.442-3.25 9.448 9.448 0 0 0-4.671-1.21c-1.739 0-3.344.425-4.801 1.285a9.343 9.343 0 0 0-3.457 3.476 9.331 9.331 0 0 0-1.274 4.758Zm28.664 0c0 2.668.938 4.91 2.786 6.742 1.851 1.828 4.093 2.742 6.746 2.742 1.57 0 3.03-.336 4.394-1.027 1.363-.672 2.469-1.605 3.309-2.8l-2.617-1.997a5.588 5.588 0 0 1-2.207 1.832 6.727 6.727 0 0 1-2.88.649c-1.511 0-2.82-.465-3.886-1.399-1.082-.914-1.754-2.09-2.016-3.527h14.895c.058-.504.074-.914.074-1.254a9.672 9.672 0 0 0-2.617-6.645c-.801-.859-1.793-1.55-2.953-2.07a9.15 9.15 0 0 0-3.72-.766c-1.772 0-3.362.426-4.8 1.305a9.188 9.188 0 0 0-3.328 3.492 9.77 9.77 0 0 0-1.18 4.723Zm14.86-1.68H289.16c.336-1.324 1.008-2.39 2.02-3.23.988-.84 2.187-1.25 3.57-1.25 1.422 0 2.637.43 3.66 1.27 1.012.859 1.63 1.921 1.852 3.21Zm0 0"/></svg>