<svg xmlns="http://www.w3.org/2000/svg" height="56" viewBox="0 0 286 50"><path d="M14.765 50a1.728 1.728 0 0 1-1.3-.742l-.511-.863a1.669 1.669 0 0 1-.009-1.481l10.1-17.724c.073-.131.147-.178.169-.178s.094.046.168.178l2.141 3.748a1.546 1.546 0 0 1 .175.747 1.654 1.654 0 0 1-.166.749l-5.089 8.95a1.286 1.286 0 0 0-.183.646 1.01 1.01 0 0 0 1.129.97h13.584a1.013 1.013 0 0 0 1.123-.972 1.257 1.257 0 0 0-.181-.637L13.04 2.923a1.55 1.55 0 0 1-.168-.747 1.555 1.555 0 0 1 .168-.749l.388-.68A1.68 1.68 0 0 1 14.7 0h26.74a1.73 1.73 0 0 1 1.31.748l.65 1.106a1.539 1.539 0 0 1 .175.748 1.447 1.447 0 0 1-.169.723L33.362 20.92c-.079.131-.154.174-.175.174s-.094-.042-.168-.174l-2.257-3.957a1.6 1.6 0 0 1-.169-.747 1.506 1.506 0 0 1 .169-.739l5.08-8.936a1.307 1.307 0 0 0 .183-.645 1.016 1.016 0 0 0-1.125-.981H21.505a1.25 1.25 0 0 0-.783.248.935.935 0 0 0-.343.733 1.247 1.247 0 0 0 .184.636L43.377 47.01a1.448 1.448 0 0 1 .168.726 1.59 1.59 0 0 1-.174.763l-.438.754A1.781 1.781 0 0 1 41.64 50Zm31.1-6.286-2.229-3.95a1.533 1.533 0 0 1-.16-.723 1.552 1.552 0 0 1 .175-.756l7.172-12.268a2.328 2.328 0 0 0 .29-1.172 2.362 2.362 0 0 0-.29-1.187L43.7 11.617a1.669 1.669 0 0 1-.009-1.481l2.186-3.83c.073-.131.147-.184.175-.184s.1.046.184.178L56.83 24.193a1.656 1.656 0 0 1 .007 1.466L46.215 43.714c-.079.132-.153.176-.177.176s-.101-.043-.174-.176Zm-35.439-.278L.169 25.783A1.575 1.575 0 0 1 0 25.045a1.5 1.5 0 0 1 .169-.745L10.425 6.623c.079-.149.154-.176.166-.176s.088.027.171.176l2.193 3.866a1.731 1.731 0 0 1-.015 1.48L6.083 23.652a2.543 2.543 0 0 0-.009 2.357l6.881 11.985a1.506 1.506 0 0 1 .175.76 1.56 1.56 0 0 1-.163.742l-2.205 3.941c-.082.147-.156.175-.171.175s-.091-.029-.166-.176ZM88.114 8.078v3.147h-7.241v14.484h-3.147V11.225h-7.243V8.078h17.631ZM89.386 25.695V8.064h3.147v17.631ZM111.436 8.064v17.639h-3.154V14.475l-3.088 2.379-2.573 1.993-2.574-1.993-3.088-2.375v11.224h-3.154V8.064l3.154 2.434 5.669 4.367 5.669-4.367ZM115.841 12.828v1.632h11.345v3.139h-11.345v3.331a1.622 1.622 0 0 0 1.61 1.625h12.874v3.139h-12.874a4.762 4.762 0 0 1-4.757-4.764v-8.1a4.757 4.757 0 0 1 4.757-4.764h12.874v3.138h-12.874a1.622 1.622 0 0 0-1.61 1.624ZM146.148 22.548v3.139h-8.933a5.651 5.651 0 0 1-2.47-.573 5.679 5.679 0 0 1-3.147-5.036V8.064h3.14v12.33a2.519 2.519 0 0 0 2.162 2.162h9.249ZM150.537 12.828v1.632h11.343v3.139h-11.343v3.331a1.622 1.622 0 0 0 1.61 1.625h12.874v3.139h-12.874a4.762 4.762 0 0 1-4.757-4.764v-8.1a4.757 4.757 0 0 1 4.757-4.764h12.874v3.138h-12.874a1.622 1.622 0 0 0-1.61 1.624ZM179.83 12.923v-.1a1.622 1.622 0 0 0-1.625-1.61h-7.154a1.61 1.61 0 0 0-1.61 1.61v.1a1.61 1.61 0 0 0 1.61 1.61h6.338a5.551 5.551 0 0 1 4.117 1.823 1.679 1.679 0 0 1 .213.243 5.57 5.57 0 0 1-4.323 9.095h-5.525a5.57 5.57 0 0 1-5.573-5.573h3.14a2.437 2.437 0 0 0 2.433 2.435h5.522a2.434 2.434 0 1 0 0-4.867h-6.338a4.653 4.653 0 0 1-3.284-1.333 4.253 4.253 0 0 1-.618-.735 4.689 4.689 0 0 1-.846-2.706v-.1a4.757 4.757 0 0 1 4.757-4.764h7.154a4.768 4.768 0 0 1 4.764 4.764v.1h-3.154ZM197.77 12.923v-.1a1.622 1.622 0 0 0-1.625-1.61h-7.154a1.61 1.61 0 0 0-1.61 1.61v.1a1.61 1.61 0 0 0 1.61 1.61h6.338a5.551 5.551 0 0 1 4.117 1.823 1.679 1.679 0 0 1 .213.243 5.57 5.57 0 0 1-4.323 9.095h-5.525a5.57 5.57 0 0 1-5.573-5.573h3.139a2.437 2.437 0 0 0 2.434 2.435h5.522a2.434 2.434 0 1 0 0-4.867h-6.338a4.653 4.653 0 0 1-3.284-1.333 4.251 4.251 0 0 1-.618-.735 4.689 4.689 0 0 1-.846-2.706v-.1a4.757 4.757 0 0 1 4.757-4.764h7.154a4.768 4.768 0 0 1 4.764 4.764v.1h-3.154ZM230.826 8.078v3.147h-7.241v14.484h-3.147V11.225h-7.243V8.078h17.631ZM235.238 12.828v1.632h11.343v3.139h-11.343v3.331a1.622 1.622 0 0 0 1.61 1.625h12.874v3.139h-12.874a4.762 4.762 0 0 1-4.757-4.764v-8.1a4.757 4.757 0 0 1 4.757-4.764h12.874v3.138h-12.874a1.622 1.622 0 0 0-1.61 1.624Z"/><path d="M252.494 16.879a5.68 5.68 0 0 0 5.673 5.68h8.823v3.139h-8.823a8.823 8.823 0 1 1 0-17.646h8.823v3.137h-8.823a5.706 5.706 0 0 0-5.673 5.69ZM285.881 8.064v17.631h-3.147v-8.088h-11.337v8.088h-3.147V8.064h3.147v6.4h11.338v-6.4Z"/><g opacity=".4"><path d="M77.733 40.864v-8.088h1.441v8.088ZM87.563 36.82a2.608 2.608 0 0 0 2.6 2.6h2.6v-1.549h-2.6V36.43h4.044v4.434h-4.044a4.044 4.044 0 1 1 0-8.088h4.044v1.441h-4.044a2.6 2.6 0 0 0-2.6 2.603ZM108.937 40.864h-1.625l-.735-1.441-1.765-3.463-1.765 3.463-.743 1.448h-1.617l.735-1.448 3.389-6.647 3.389 6.647ZM123.517 32.776v8.088h-1.448v-5.147l-1.419 1.088-1.184.912-1.184-.912-1.412-1.088v5.147h-1.448v-8.088l1.448 1.118 2.6 2 2.6-2ZM130.458 40.864v-8.088h1.441v8.088ZM146.935 32.776v8.088l-1.448-1.118-5.2-4.007v5.117h-1.447v-8.051l1.448 1.118 5.2 4.007v-5.147h1.448ZM155.324 36.82a2.608 2.608 0 0 0 2.6 2.6h2.6v-1.549h-2.6V36.43h4.044v4.434h-4.044a4.044 4.044 0 1 1 0-8.088h4.044v1.441h-4.044a2.608 2.608 0 0 0-2.6 2.603ZM187.62 34.96a2.189 2.189 0 0 1-1.279 1.993 2.075 2.075 0 0 1-.632.176.183.183 0 0 1-.059.007v.015h-3.875v3.72h-1.445v-8.087h5.1a2.172 2.172 0 0 1 1.544.64 2.142 2.142 0 0 1 .646 1.536Zm-1.441 0a.8.8 0 0 0-.221-.537.752.752 0 0 0-.522-.213h-3.662v1.493h3.662a.719.719 0 0 0 .3-.066.731.731 0 0 0 .439-.677ZM201.233 39.423v1.441h-4.1a2.517 2.517 0 0 1-1.132-.265 2.487 2.487 0 0 1-1.169-1.176 2.451 2.451 0 0 1-.268-1.129v-5.51h1.441v5.654a1.162 1.162 0 0 0 .993.993h4.235ZM215.953 40.864h-1.618l-.743-1.448-1.765-3.463-1.764 3.463-.743 1.448h-1.617l.735-1.448 3.39-6.647 3.389 6.647ZM228.239 32.784v1.441h-3.323v6.639h-1.441v-6.639h-3.324v-1.441ZM243.274 32.776v1.441h-5.9a.745.745 0 0 0-.743.743v.75h5.206v1.441h-5.206v3.705h-1.437v-5.9a2.184 2.184 0 0 1 2.184-2.184h5.9ZM257.019 36.82a4.044 4.044 0 1 1-4.044-4.044 4.042 4.042 0 0 1 4.044 4.044Zm-1.441 0a2.6 2.6 0 1 0-2.6 2.6 2.608 2.608 0 0 0 2.598-2.6ZM270.229 39.423l.735 1.448h-1.618l-.743-1.448-.772-1.515-.037-.066a1.436 1.436 0 0 0-1.228-.691h-1.441v3.72h-1.44v-8.087h5.1a2.187 2.187 0 0 1 .9 4.176 2.018 2.018 0 0 1-.632.176Zm-1.441-3.713a.74.74 0 0 0 .735-.743.74.74 0 0 0-.743-.743h-3.662v1.493h3.669ZM286 32.776v8.088h-1.448v-5.147l-1.419 1.088-1.184.912-1.184-.912-1.4-1.088v5.147h-1.453v-8.088l1.448 1.118 2.6 2 2.6-2Z"/></g></svg>