<svg xmlns="http://www.w3.org/2000/svg" height="56" class="Footer__LargeLogo-sc-dwl3i2-8 hTbwen" style="enable-background:new 0 0 280 38" xml:space="preserve" viewBox="0.2 0.3 279.6 37.1"><path d="M256.8 1v25.9c0 .4.3.7.7.7h4.6c.4 0 .7-.3.7-.7V12.5L278 27.8c.1.1.4.2.5.2h.6c.4 0 .7-.3.7-.7V1.4c0-.4-.3-.7-.7-.7h-4.6c-.4 0-.7.3-.7.7v13.7L258.5.3h-1c-.3 0-.7.3-.7.7m-14.9.4v25.5c0 .4.3.7.7.7h4.6c.4 0 .7-.3.7-.7V1.4c0-.4-.3-.7-.7-.7h-4.6c-.4 0-.7.3-.7.7m-22 0v25.5c0 .4.3.7.7.7h14.5c.4 0 .7-.3.7-.7v-4.2c0-.4-.3-.7-.7-.7h-9.2V1.4c0-.4-.3-.7-.7-.7h-4.6c-.4 0-.7.3-.7.7m-28.5 12.8c0-4.2 3.5-7.7 7.7-7.7s7.7 3.5 7.7 7.7-3.5 7.7-7.7 7.7-7.7-3.5-7.7-7.7m-6.1 0c0 7.7 6.1 13.8 13.8 13.8S213 21.9 213 14.2 206.8.3 199.1.3s-13.8 6.2-13.8 13.9m-17.1-7.9h3.7c1.7 0 3 1.2 3 2.9s-1.4 3-3 3h-3.7V6.3zm-6-4.9v25.5c0 .4.3.7.7.7h4.5c.4 0 .7-.3.7-.7v-9.1h4c4.7 0 8.6-3.9 8.6-8.7 0-4.7-3.9-8.5-8.6-8.5H163c-.5.1-.8.4-.8.8M128.8.9l-4.3 25.9c-.1.5.3.8.7.8h4.5c.4 0 .7-.3.7-.6l1.7-11.9h.1l6.5 12.5c.1.2.4.4.7.4h.7c.2 0 .5-.2.7-.4l6.5-12.5h.1L149 27c0 .3.4.6.7.6h4.5c.5 0 .8-.3.7-.8L150.6.9c0-.3-.4-.6-.7-.6h-.6c-.2 0-.5.2-.7.4l-8.9 16.7h-.1L130.7.7c-.1-.2-.5-.4-.7-.4h-.6c-.2 0-.6.3-.6.6m-23.9 17.5 2.9-6.4 2.9 6.4h-5.8zm-10 8.3c-.2.5.1 1 .7 1h4.2c.8 0 1.2-.5 1.4-.9l1.4-3.1H113l1.4 3c.3.7.7 1 1.3 1h4.3c.6 0 .9-.5.7-1L108.7.8c-.1-.2-.4-.4-.7-.4h-.4c-.3 0-.5.2-.7.4l-12 25.9zM76.3 6.2H82c1.6 0 2.9 1.3 2.9 2.9s-1.3 3.1-2.9 3.1h-5.7v-6zm-6-4.8v25.5c0 .4.3.7.7.7h4.6c.4 0 .7-.3.7-.7v-9.8H79l5.1 10.2c.1.2.3.3.6.3h5.1c.7 0 .9-.6.7-1.1l-5.3-9.8c3.3-1.3 5.7-4.2 5.7-7.7 0-4.6-3.8-8.3-8.4-8.3H71c-.4 0-.7.3-.7.7m-24.7 0v4.2c0 .4.3.7.7.7h5.5v20.6c0 .4.3.7.7.7h4.6c.4 0 .7-.3.7-.7V6.3h5.5c.4 0 .7-.3.7-.7V1.4c0-.4-.3-.7-.7-.7h-17c-.4 0-.7.3-.7.7"/><path d="M256.8 1v25.9c0 .4.3.7.7.7h4.6c.4 0 .7-.3.7-.7V12.5L278 27.8c.1.1.4.2.5.2h.6c.4 0 .7-.3.7-.7V1.4c0-.4-.3-.7-.7-.7h-4.6c-.4 0-.7.3-.7.7v13.7L258.5.3h-1c-.3 0-.7.3-.7.7m-14.9.4v25.5c0 .4.3.7.7.7h4.6c.4 0 .7-.3.7-.7V1.4c0-.4-.3-.7-.7-.7h-4.6c-.4 0-.7.3-.7.7m-22 0v25.5c0 .4.3.7.7.7h14.5c.4 0 .7-.3.7-.7v-4.2c0-.4-.3-.7-.7-.7h-9.2V1.4c0-.4-.3-.7-.7-.7h-4.6c-.4 0-.7.3-.7.7m-28.5 12.8c0-4.2 3.5-7.7 7.7-7.7s7.7 3.5 7.7 7.7-3.5 7.7-7.7 7.7-7.7-3.5-7.7-7.7m-6.1 0c0 7.7 6.1 13.8 13.8 13.8S213 21.9 213 14.2 206.8.3 199.1.3s-13.8 6.2-13.8 13.9m-17.1-7.9h3.7c1.7 0 3 1.2 3 2.9s-1.4 3-3 3h-3.7V6.3zm-6-4.9v25.5c0 .4.3.7.7.7h4.5c.4 0 .7-.3.7-.7v-9.1h4c4.7 0 8.6-3.9 8.6-8.7 0-4.7-3.9-8.5-8.6-8.5H163c-.5.1-.8.4-.8.8M128.8.9l-4.3 25.9c-.1.5.3.8.7.8h4.5c.4 0 .7-.3.7-.6l1.7-11.9h.1l6.5 12.5c.1.2.4.4.7.4h.7c.2 0 .5-.2.7-.4l6.5-12.5h.1L149 27c0 .3.4.6.7.6h4.5c.5 0 .8-.3.7-.8L150.6.9c0-.3-.4-.6-.7-.6h-.6c-.2 0-.5.2-.7.4l-8.9 16.7h-.1L130.7.7c-.1-.2-.5-.4-.7-.4h-.6c-.2 0-.6.3-.6.6m-23.9 17.5 2.9-6.4 2.9 6.4h-5.8zm-10 8.3c-.2.5.1 1 .7 1h4.2c.8 0 1.2-.5 1.4-.9l1.4-3.1H113l1.4 3c.3.7.7 1 1.3 1h4.3c.6 0 .9-.5.7-1L108.7.8c-.1-.2-.4-.4-.7-.4h-.4c-.3 0-.5.2-.7.4l-12 25.9zM76.3 6.2H82c1.6 0 2.9 1.3 2.9 2.9s-1.3 3.1-2.9 3.1h-5.7v-6zm-6-4.8v25.5c0 .4.3.7.7.7h4.6c.4 0 .7-.3.7-.7v-9.8H79l5.1 10.2c.1.2.3.3.6.3h5.1c.7 0 .9-.6.7-1.1l-5.3-9.8c3.3-1.3 5.7-4.2 5.7-7.7 0-4.6-3.8-8.3-8.4-8.3H71c-.4 0-.7.3-.7.7m-24.7 0v4.2c0 .4.3.7.7.7h5.5v20.6c0 .4.3.7.7.7h4.6c.4 0 .7-.3.7-.7V6.3h5.5c.4 0 .7-.3.7-.7V1.4c0-.4-.3-.7-.7-.7h-17c-.4 0-.7.3-.7.7"/><path d="M256.8 1v25.9c0 .4.3.7.7.7h4.6c.4 0 .7-.3.7-.7V12.5L278 27.8c.1.1.4.2.5.2h.6c.4 0 .7-.3.7-.7V1.4c0-.4-.3-.7-.7-.7h-4.6c-.4 0-.7.3-.7.7v13.7L258.5.3h-1c-.3 0-.7.3-.7.7m-14.9.4v25.5c0 .4.3.7.7.7h4.6c.4 0 .7-.3.7-.7V1.4c0-.4-.3-.7-.7-.7h-4.6c-.4 0-.7.3-.7.7m-22 0v25.5c0 .4.3.7.7.7h14.5c.4 0 .7-.3.7-.7v-4.2c0-.4-.3-.7-.7-.7h-9.2V1.4c0-.4-.3-.7-.7-.7h-4.6c-.4 0-.7.3-.7.7m-28.5 12.8c0-4.2 3.5-7.7 7.7-7.7s7.7 3.5 7.7 7.7-3.5 7.7-7.7 7.7-7.7-3.5-7.7-7.7m-6.1 0c0 7.7 6.1 13.8 13.8 13.8S213 21.9 213 14.2 206.8.3 199.1.3s-13.8 6.2-13.8 13.9m-17.1-7.9h3.7c1.7 0 3 1.2 3 2.9s-1.4 3-3 3h-3.7V6.3zm-6-4.9v25.5c0 .4.3.7.7.7h4.5c.4 0 .7-.3.7-.7v-9.1h4c4.7 0 8.6-3.9 8.6-8.7 0-4.7-3.9-8.5-8.6-8.5H163c-.5.1-.8.4-.8.8M128.8.9l-4.3 25.9c-.1.5.3.8.7.8h4.5c.4 0 .7-.3.7-.6l1.7-11.9h.1l6.5 12.5c.1.2.4.4.7.4h.7c.2 0 .5-.2.7-.4l6.5-12.5h.1L149 27c0 .3.4.6.7.6h4.5c.5 0 .8-.3.7-.8L150.6.9c0-.3-.4-.6-.7-.6h-.6c-.2 0-.5.2-.7.4l-8.9 16.7h-.1L130.7.7c-.1-.2-.5-.4-.7-.4h-.6c-.2 0-.6.3-.6.6m-23.9 17.5 2.9-6.4 2.9 6.4h-5.8zm-10 8.3c-.2.5.1 1 .7 1h4.2c.8 0 1.2-.5 1.4-.9l1.4-3.1H113l1.4 3c.3.7.7 1 1.3 1h4.3c.6 0 .9-.5.7-1L108.7.8c-.1-.2-.4-.4-.7-.4h-.4c-.3 0-.5.2-.7.4l-12 25.9zM76.3 6.2H82c1.6 0 2.9 1.3 2.9 2.9s-1.3 3.1-2.9 3.1h-5.7v-6zm-6-4.8v25.5c0 .4.3.7.7.7h4.6c.4 0 .7-.3.7-.7v-9.8H79l5.1 10.2c.1.2.3.3.6.3h5.1c.7 0 .9-.6.7-1.1l-5.3-9.8c3.3-1.3 5.7-4.2 5.7-7.7 0-4.6-3.8-8.3-8.4-8.3H71c-.4 0-.7.3-.7.7m-24.7 0v4.2c0 .4.3.7.7.7h5.5v20.6c0 .4.3.7.7.7h4.6c.4 0 .7-.3.7-.7V6.3h5.5c.4 0 .7-.3.7-.7V1.4c0-.4-.3-.7-.7-.7h-17c-.4 0-.7.3-.7.7M32.5 29.5l-2.5-16C29.7 6.1 23.7.3 16.3.3 8.6.3 2.5 6.5 2.5 14.1L.2 29.5c0 .2.1.5.4.5l4.9.8c.2 0 .5-.1.5-.4l1-6.1c1.6 1.5 3.7 2.6 5.9 3.2V37c0 .2.2.4.4.4h5c.2 0 .4-.2.4-.4v-9.4c2.8-.5 5.2-1.7 7.2-3.6l1 6.3c0 .2.3.4.5.4l4.9-.8c.1 0 .3-.2.2-.4m-8.6-15.4c0 4.2-3.4 7.6-7.7 7.6-4.2 0-7.6-3.4-7.6-7.6 0-4.2 3.4-7.7 7.6-7.7 4.3 0 7.7 3.5 7.7 7.7"/></svg>