<?xml version="1.0" standalone="no"?>
<!DOCTYPE svg PUBLIC "-//W3C//DTD SVG 20010904//EN"
 "http://www.w3.org/TR/2001/REC-SVG-20010904/DTD/svg10.dtd">
<svg version="1.0" xmlns="http://www.w3.org/2000/svg"
 width="92.000000pt" height="92.000000pt" viewBox="0 0 92.000000 92.000000"
 preserveAspectRatio="xMidYMid meet">
<metadata>
Created by potrace 1.14, written by Peter Selinger 2001-2017
</metadata>
<g transform="translate(0.000000,92.000000) scale(0.100000,-0.100000)"
fill="#000000" stroke="none">
<path d="M390 908 c-73 -15 -211 -58 -272 -85 l-57 -25 1 -117 c1 -276 91
-477 272 -605 80 -57 121 -77 140 -70 9 3 16 9 16 13 0 3 -36 28 -80 56 -139
86 -230 199 -270 335 -28 93 -31 112 -37 242 l-6 116 33 17 c56 29 141 56 238
75 l93 18 112 -29 c170 -44 235 -68 241 -87 2 -9 5 -40 5 -69 4 -185 -106
-303 -232 -249 -43 18 -71 50 -101 117 -26 57 -47 81 -78 92 -12 4 -18 1 -18
-8 0 -8 -10 -25 -21 -36 -18 -18 -21 -29 -16 -71 8 -63 50 -140 103 -187 46
-40 106 -65 225 -91 l80 -18 16 24 c54 83 86 250 81 419 l-3 110 -38 18 c-50
23 -297 95 -344 100 -21 2 -58 0 -83 -5z"/>
<path d="M355 820 c-53 -13 -79 -27 -107 -54 -46 -47 -62 -93 -61 -180 3 -193
115 -373 303 -484 63 -38 76 -42 95 -32 29 15 115 90 115 99 0 4 -44 24 -98
45 -113 42 -184 92 -229 159 -33 49 -63 136 -63 181 0 18 -8 30 -25 38 -48 22
-52 103 -6 127 32 18 58 13 137 -23 l74 -35 34 -73 c40 -89 72 -118 122 -112
50 6 70 19 104 65 24 34 28 48 26 92 -3 59 16 45 -186 142 -118 57 -159 65
-235 45z m272 -121 c7 -6 13 -21 13 -32 0 -19 -2 -18 -23 5 -21 22 -30 25 -73
21 l-49 -5 24 25 c23 25 25 26 59 11 20 -8 41 -19 49 -25z m133 -39 c0 -17 -3
-18 -31 -8 -31 11 -27 22 11 25 13 1 20 -4 20 -17z"/>
<path d="M292 673 c-13 -26 -4 -43 24 -43 29 0 41 24 24 45 -17 20 -37 19 -48
-2z"/>
</g>
</svg>
