<?xml version="1.0" standalone="no"?>
<!DOCTYPE svg PUBLIC "-//W3C//DTD SVG 20010904//EN"
 "http://www.w3.org/TR/2001/REC-SVG-20010904/DTD/svg10.dtd">
<svg version="1.0" xmlns="http://www.w3.org/2000/svg"
 width="1280.000000pt" height="1154.000000pt" viewBox="0 0 1280.000000 1154.000000"
 preserveAspectRatio="xMidYMid meet">
<metadata>
Created by potrace 1.15, written by Peter Selinger 2001-2017
</metadata>
<g transform="translate(0.000000,1154.000000) scale(0.100000,-0.100000)"
fill="#000000" stroke="none">
<path d="M12410 11523 c-64 -35 -85 -48 -93 -60 -4 -7 -12 -13 -18 -13 -14 0
-105 -73 -134 -108 -13 -16 -30 -51 -36 -78 -6 -27 -14 -56 -17 -64 -15 -47 8
-141 42 -169 9 -8 16 -19 16 -25 0 -15 42 -56 57 -56 6 0 25 -10 44 -23 19
-13 66 -29 106 -36 40 -7 75 -17 79 -22 10 -16 35 -10 81 21 24 17 49 30 56
30 7 0 28 10 47 22 19 12 44 27 54 33 25 13 63 81 70 126 3 20 13 42 21 49 25
20 17 52 -25 105 -21 28 -47 64 -56 80 -33 61 -98 136 -143 167 -58 39 -105
45 -151 21z"/>
<path d="M2684 10783 l-20 -26 33 -64 c18 -36 37 -82 44 -102 6 -20 17 -45 23
-56 7 -11 18 -39 26 -62 17 -55 48 -83 99 -90 36 -5 41 -3 41 14 0 20 -14 68
-30 108 -88 213 -142 306 -178 304 -10 0 -26 -12 -38 -26z"/>
<path d="M7904 9742 c-38 -13 -74 -49 -74 -75 0 -14 -4 -29 -10 -32 -13 -8
-13 -72 0 -80 5 -3 14 -24 20 -46 15 -53 70 -113 118 -127 22 -7 64 -12 94
-12 44 0 59 4 75 23 40 42 53 93 53 202 l0 103 -52 12 c-29 6 -67 18 -85 26
-32 14 -102 17 -139 6z"/>
<path d="M11204 9295 c-85 -16 -104 -26 -158 -84 -32 -34 -43 -54 -49 -93 -4
-27 -13 -59 -19 -71 -7 -12 -13 -26 -14 -32 0 -5 -5 -21 -11 -35 -6 -14 -14
-52 -18 -85 -4 -33 -10 -64 -15 -70 -10 -13 -34 -155 -27 -162 3 -3 21 7 40
21 19 14 39 26 45 26 6 0 26 9 44 19 18 10 51 22 73 26 22 4 45 10 50 15 6 4
51 12 102 18 67 8 102 17 131 36 46 29 102 93 102 118 0 9 5 20 10 23 6 3 10
19 10 35 0 16 5 32 10 35 14 9 12 186 -2 217 -9 18 -25 28 -58 37 -75 18 -171
21 -246 6z"/>
<path d="M9133 8929 c-24 -24 -43 -47 -43 -52 0 -5 -14 -27 -31 -48 -25 -32
-32 -52 -36 -102 -4 -51 -2 -65 12 -77 16 -13 21 -11 51 25 19 22 34 45 34 51
0 7 14 38 30 70 26 49 30 67 28 117 l-3 59 -42 -43z"/>
<path d="M9722 7845 c-34 -25 -65 -45 -68 -45 -3 0 -37 -22 -75 -50 -38 -27
-71 -50 -74 -50 -3 0 -30 -18 -60 -40 -30 -22 -57 -40 -61 -40 -3 0 -37 -22
-75 -50 -38 -27 -71 -50 -74 -50 -2 0 -59 -37 -125 -82 -66 -46 -128 -87 -138
-93 -10 -5 -49 -31 -89 -57 -78 -53 -131 -62 -187 -33 -16 8 -47 18 -70 21
-22 4 -49 11 -59 16 -14 7 -34 -3 -92 -49 -41 -32 -74 -63 -75 -69 0 -6 -11
-28 -25 -48 -14 -20 -25 -43 -25 -51 0 -7 -12 -28 -27 -45 l-27 -32 -105 7
c-116 7 -154 22 -265 105 -31 22 -58 40 -61 40 -2 0 -33 23 -67 50 -34 28 -67
50 -73 50 -6 0 -34 23 -63 52 -41 40 -52 58 -52 83 0 17 -3 35 -7 39 -8 8 -8
10 -26 163 -16 141 -44 180 -102 139 -11 -7 -38 -19 -60 -26 -22 -7 -51 -18
-65 -25 -14 -7 -41 -19 -60 -25 -19 -7 -48 -18 -65 -25 -130 -57 -167 -67
-207 -61 -23 4 -47 11 -53 16 -5 4 -39 16 -75 25 -36 9 -69 20 -75 24 -5 4
-32 14 -60 21 -27 7 -56 17 -62 23 -7 5 -13 6 -13 2 0 -4 -6 -3 -12 3 -7 5
-29 13 -48 17 -19 4 -48 13 -65 20 -16 8 -57 21 -90 31 -33 9 -64 20 -70 24
-5 4 -32 13 -60 20 -27 7 -54 16 -60 20 -5 4 -41 15 -78 25 -37 10 -70 22 -73
27 -10 15 -46 8 -72 -14 -14 -13 -55 -50 -91 -83 -82 -76 -120 -102 -196 -140
-54 -27 -69 -30 -150 -29 -49 0 -110 2 -135 4 -69 4 -94 -7 -163 -76 -59 -60
-67 -64 -108 -64 -41 0 -49 5 -116 70 -39 38 -76 77 -82 87 -9 16 -12 16 -21
3 -20 -29 -33 -96 -31 -162 1 -37 -3 -70 -9 -73 -5 -3 -10 -16 -10 -29 0 -12
-11 -33 -24 -45 -21 -20 -39 -24 -113 -28 -48 -2 -95 -7 -103 -10 -29 -9 -172
-5 -183 6 -6 6 -17 11 -24 11 -7 0 -26 15 -42 33 -37 40 -111 149 -111 162 0
12 -80 66 -132 90 -20 9 -47 15 -60 13 -20 -3 -24 -11 -32 -71 -7 -60 -6 -74
12 -110 11 -23 23 -53 27 -67 11 -37 42 -109 71 -164 22 -40 26 -57 21 -98 -4
-28 -12 -56 -18 -64 -6 -8 -8 -14 -4 -14 4 0 3 -6 -2 -12 -6 -7 -16 -35 -23
-63 -8 -27 -20 -61 -27 -75 -7 -14 -13 -32 -14 -40 0 -8 -27 -64 -59 -125 -32
-60 -70 -133 -85 -162 -17 -35 -64 -89 -146 -167 -124 -120 -163 -147 -243
-167 -25 -6 -49 -15 -52 -20 -3 -5 -22 -9 -43 -9 -31 0 -44 8 -81 45 -24 25
-48 45 -53 45 -4 0 -98 81 -207 180 -109 99 -204 180 -211 180 -14 0 -2 -358
13 -377 5 -7 7 -16 4 -22 -6 -10 94 -101 111 -101 5 0 20 -11 33 -25 13 -14
31 -25 41 -25 20 0 109 -98 109 -120 0 -9 -6 -25 -14 -36 -25 -35 -30 -107
-11 -150 35 -80 42 -89 87 -100 37 -9 46 -17 65 -54 20 -39 23 -59 23 -165 0
-126 -14 -193 -48 -243 -10 -15 -21 -34 -24 -42 -15 -38 -71 -100 -105 -115
-21 -9 -50 -23 -65 -31 -14 -8 -32 -14 -38 -14 -16 0 -35 -24 -61 -77 l-21
-43 57 -64 c31 -36 66 -68 78 -72 12 -3 29 -12 37 -19 8 -7 32 -18 52 -24 69
-22 139 -124 137 -200 -2 -100 -72 -140 -290 -165 -88 -10 -160 -23 -169 -31
-8 -7 -24 -16 -35 -19 -28 -9 -63 -90 -71 -164 -4 -34 -11 -65 -15 -68 -12 -7
-11 -71 0 -79 5 -3 13 -34 16 -70 10 -93 69 -175 125 -175 15 0 30 -3 34 -7
12 -12 178 -43 232 -43 29 0 58 6 70 15 10 8 38 15 61 15 23 0 45 5 48 10 7
12 88 14 99 3 4 -5 29 -13 54 -18 l47 -10 15 -82 c8 -45 18 -85 23 -89 13 -13
8 -279 -5 -292 -7 -7 -8 -12 -4 -12 5 0 4 -6 -1 -12 -6 -7 -16 -44 -23 -83 -7
-38 -16 -74 -20 -80 -4 -5 -13 -35 -20 -65 -7 -30 -19 -63 -26 -74 -10 -15 -9
-25 8 -58 19 -36 99 -108 120 -108 28 0 67 -42 73 -80 6 -33 2 -45 -19 -73
-46 -60 -30 -127 42 -178 43 -31 54 -34 132 -37 81 -3 87 -1 138 30 30 18 66
40 81 49 16 8 52 32 80 53 29 20 62 41 74 46 12 4 37 20 56 34 19 14 41 26 47
26 17 0 62 -31 153 -105 40 -33 81 -64 89 -70 9 -5 67 -52 129 -102 62 -51
115 -93 119 -93 3 0 41 -29 84 -65 43 -36 81 -65 84 -65 4 0 58 -43 121 -95
63 -52 117 -95 120 -95 3 0 44 -31 90 -70 46 -38 88 -70 93 -70 5 0 17 -9 27
-20 20 -23 83 -28 103 -8 7 7 12 8 12 4 0 -5 6 -3 14 3 7 6 51 16 97 22 46 6
93 15 104 19 108 47 691 42 783 -6 15 -8 33 -14 40 -14 31 0 74 -34 140 -113
40 -47 72 -91 72 -99 0 -8 9 -23 20 -33 11 -10 20 -24 20 -30 0 -7 6 -18 14
-24 11 -10 47 24 187 176 96 104 179 196 184 205 6 9 87 100 180 201 l170 185
89 1 c92 1 207 -14 239 -31 10 -5 36 -26 58 -45 22 -20 42 -33 46 -29 4 3 1
12 -5 18 -15 15 -16 64 -2 73 6 4 8 11 4 16 -3 5 -1 15 4 22 5 7 13 32 17 57
4 24 18 59 31 76 13 17 24 36 24 42 0 7 8 12 18 12 10 0 32 11 50 24 22 15 52
25 94 30 112 11 122 22 153 151 9 39 20 79 26 90 5 11 15 41 22 65 7 25 33 83
57 128 64 119 75 138 104 182 14 22 26 43 26 47 0 5 19 31 41 58 23 28 56 79
73 115 17 35 45 78 61 95 17 17 38 47 47 66 19 36 28 52 67 112 22 34 23 45
18 116 -6 98 7 347 21 364 5 6 15 50 22 97 7 47 21 99 31 116 11 17 19 44 19
60 1 20 20 54 63 108 60 77 95 103 197 145 49 20 95 41 110 49 8 5 28 15 45
23 53 26 45 43 -69 156 -86 84 -106 109 -106 133 0 16 4 31 9 35 5 3 15 31 22
63 7 31 20 66 30 77 10 11 23 31 29 45 5 14 24 50 40 80 22 40 30 68 30 105
l0 50 -107 106 c-109 107 -208 193 -230 200 -7 2 -44 31 -82 64 -67 58 -121
139 -121 182 0 10 -6 29 -13 42 -10 21 -9 32 12 73 17 36 29 48 46 48 31 0
136 -20 160 -31 11 -4 49 -13 85 -19 36 -6 74 -15 85 -19 21 -10 185 -45 296
-63 64 -11 69 -10 118 15 28 15 59 27 69 27 9 0 27 7 38 14 12 8 43 20 70 27
27 6 54 15 59 19 6 5 40 13 78 18 101 16 207 84 333 214 75 78 103 114 114
148 8 25 22 59 32 76 10 17 21 53 24 80 4 27 10 54 14 59 4 6 13 124 21 264
l12 254 -54 48 c-30 27 -58 49 -62 49 -5 0 -62 45 -127 100 -65 55 -121 100
-125 100 -3 0 -48 36 -99 80 -52 44 -97 80 -101 80 -3 0 -60 45 -125 100 -65
55 -127 100 -137 100 -11 0 -47 -20 -81 -45z"/>
<path d="M2113 7481 c-21 -17 -21 -21 -8 -62 12 -40 47 -112 105 -214 12 -22
37 -59 56 -82 19 -23 34 -45 34 -50 1 -10 71 -43 92 -43 22 0 48 33 48 63 0
14 5 29 10 32 15 9 13 205 -2 238 -7 15 -26 33 -43 40 -16 6 -53 24 -82 39
-30 15 -69 30 -88 34 -20 3 -38 10 -41 15 -9 15 -58 9 -81 -10z"/>
<path d="M575 6305 c17 -14 37 -25 46 -25 9 0 23 -9 30 -21 11 -16 27 -21 79
-25 54 -4 61 -2 40 7 -14 6 -37 17 -52 25 -14 8 -31 14 -37 14 -6 0 -35 11
-65 25 -68 31 -79 31 -41 0z"/>
<path d="M2908 2782 c-16 -9 -28 -24 -28 -34 0 -10 -10 -36 -21 -58 -19 -36
-21 -52 -16 -122 4 -64 10 -84 28 -104 30 -32 82 -32 125 1 18 14 38 25 45 25
17 0 98 88 110 118 5 13 9 43 9 67 0 56 -37 90 -110 100 -27 4 -52 11 -56 16
-9 15 -57 10 -86 -9z"/>
<path d="M8973 2764 c-12 -3 -27 -12 -33 -20 -7 -8 -18 -14 -24 -14 -7 0 -23
-24 -37 -52 -21 -46 -24 -67 -23 -158 1 -127 14 -155 107 -228 76 -59 118 -72
234 -72 104 0 104 0 153 100 30 61 32 71 33 181 0 102 -2 121 -24 166 -23 50
-25 51 -84 63 -33 6 -68 16 -78 21 -20 11 -190 20 -224 13z"/>
<path d="M5286 1367 c-85 -44 -158 -157 -102 -157 12 0 45 -18 74 -40 29 -22
57 -40 63 -40 6 0 35 21 65 47 54 46 54 47 54 104 0 103 -58 136 -154 86z"/>
<path d="M4335 1171 c-42 -18 -47 -34 -39 -135 l7 -96 41 0 c22 0 72 3 109 7
59 5 70 9 77 28 5 12 16 25 24 28 9 4 16 11 16 18 0 6 9 22 20 36 11 14 20 29
20 32 0 10 -56 41 -74 41 -9 0 -29 9 -45 21 -30 22 -123 35 -156 20z"/>
<path d="M6660 714 c-25 -18 -55 -38 -67 -44 -13 -5 -23 -14 -23 -20 0 -5 -6
-10 -12 -10 -15 0 -60 -84 -78 -145 -7 -22 -17 -46 -22 -52 -6 -7 -8 -19 -5
-28 4 -8 2 -17 -4 -21 -6 -4 -5 -14 3 -27 8 -12 20 -42 28 -67 7 -25 19 -52
25 -60 7 -8 28 -49 48 -90 41 -83 68 -120 89 -120 8 0 23 -7 34 -15 27 -21 87
-18 129 5 20 11 42 20 49 20 7 0 21 9 31 20 10 11 23 20 29 20 23 0 154 144
161 177 4 18 11 35 16 38 5 4 9 54 9 112 l0 106 -36 41 c-71 82 -80 90 -132
123 -31 20 -75 38 -110 44 -31 6 -65 15 -74 20 -27 14 -39 10 -88 -27z"/>
<path d="M345 495 c-22 -13 -62 -35 -90 -48 -27 -13 -56 -31 -64 -40 -7 -10
-17 -17 -22 -17 -11 0 -59 -45 -59 -56 0 -5 -24 -33 -53 -62 -43 -45 -48 -53
-27 -47 43 12 191 87 222 113 7 5 38 22 68 38 30 15 62 33 70 40 8 7 47 15 85
19 66 5 73 4 116 -24 38 -24 48 -37 54 -67 3 -21 15 -49 26 -62 10 -14 19 -30
19 -37 0 -7 11 -24 26 -40 24 -26 26 -26 44 -10 11 10 24 33 30 51 10 30 8 40
-21 94 -41 77 -63 94 -138 109 -33 7 -63 16 -66 21 -4 6 -24 10 -45 10 -22 0
-54 9 -72 20 -42 26 -54 25 -103 -5z"/>
<path d="M4853 356 c-29 -6 -63 -21 -75 -34 -20 -20 -23 -32 -21 -98 1 -62 5
-80 22 -98 12 -12 21 -27 21 -33 0 -14 56 -43 81 -43 10 0 20 4 24 10 3 5 33
12 67 16 57 6 66 11 119 61 42 41 60 65 68 97 6 24 17 49 26 56 8 7 15 22 15
34 0 20 -8 23 -97 34 -115 14 -179 14 -250 -2z"/>
</g>
</svg>
