<?xml version="1.0" standalone="no"?>
<!DOCTYPE svg PUBLIC "-//W3C//DTD SVG 20010904//EN"
 "http://www.w3.org/TR/2001/REC-SVG-20010904/DTD/svg10.dtd">
<svg version="1.0" xmlns="http://www.w3.org/2000/svg"
 width="1260.000000pt" height="1280.000000pt" viewBox="0 0 1260.000000 1280.000000"
 preserveAspectRatio="xMidYMid meet">
<metadata>
Created by potrace 1.15, written by Peter Selinger 2001-2017
</metadata>
<g transform="translate(0.000000,1280.000000) scale(0.100000,-0.100000)"
fill="#000000" stroke="none">
<path d="M8450 12798 c-3 -3 -138 -8 -300 -11 -717 -15 -1506 -89 -2225 -208
-2313 -383 -4154 -1273 -5160 -2494 -534 -649 -801 -1383 -755 -2080 14 -219
39 -357 100 -563 61 -204 173 -452 294 -645 59 -95 62 -97 91 -91 16 4 41 14
55 22 14 9 26 16 27 17 1 1 -6 26 -17 56 -69 195 -85 499 -37 726 84 400 294
779 648 1170 453 500 1144 976 1946 1339 870 394 1853 658 2858 769 590 64
1309 72 1885 20 872 -80 1710 -275 2478 -579 107 -42 197 -76 200 -76 4 0 20
22 35 50 l28 49 -115 95 c-489 407 -749 740 -787 1005 -41 288 223 506 795
656 300 79 569 124 1291 215 375 47 483 62 680 93 l80 13 3 57 c2 40 -1 59
-10 62 -17 6 -481 77 -718 109 -779 107 -1568 178 -2280 206 -312 12 -1083 24
-1090 18z"/>
<path d="M5290 10450 c-853 -70 -1577 -354 -2234 -876 -142 -114 -436 -407
-549 -549 -450 -564 -706 -1162 -803 -1870 -9 -72 -18 -227 -21 -388 l-6 -268
-61 -31 c-80 -40 -229 -123 -289 -160 -26 -17 -54 -27 -63 -24 -8 3 -12 2 -9
-4 3 -5 -5 -15 -19 -21 -22 -11 -41 -1 -228 123 -112 74 -264 178 -338 231
-74 53 -136 94 -138 92 -12 -12 227 -361 358 -523 l86 -107 -59 -50 c-156
-133 -283 -286 -356 -430 -133 -259 -134 -569 -5 -873 37 -87 139 -276 173
-321 17 -22 19 -23 43 -7 l25 17 43 -83 c290 -558 772 -1074 1375 -1475 153
-102 308 -195 460 -275 l120 -64 14 -65 c7 -35 25 -102 39 -149 28 -94 29 -96
31 -109 0 -5 20 -33 43 -62 23 -29 56 -87 73 -129 46 -108 91 -194 143 -275
252 -392 705 -739 1237 -947 93 -36 364 -118 391 -118 7 0 20 -26 30 -58 66
-214 186 -387 372 -535 l65 -51 37 44 38 45 -62 65 c-90 96 -159 247 -180 398
-6 42 -6 42 21 35 46 -12 383 -7 453 6 105 20 139 32 133 47 -3 8 -13 14 -22
14 -9 0 20 15 64 33 73 30 145 71 145 83 0 3 -13 -4 -30 -16 -113 -81 -363
-130 -590 -116 -149 9 -415 55 -570 97 -139 39 -336 110 -258 95 14 -3 33 -9
41 -12 13 -5 16 9 19 90 l3 97 -32 11 c-18 7 -31 14 -29 16 2 2 55 -13 117
-32 260 -81 626 -162 844 -186 164 -18 336 -10 433 21 53 17 32 20 -28 4 -74
-20 -121 -20 -114 0 4 8 14 16 23 17 9 1 -60 4 -154 8 -138 6 -415 42 -433 56
-2 1 10 23 27 47 94 137 270 220 430 202 107 -12 219 -54 294 -109 31 -23 111
-151 103 -164 -3 -5 1 -9 9 -9 16 0 81 137 96 204 10 46 9 51 -27 116 -78 139
-231 251 -379 278 -93 17 -295 6 -380 -21 -157 -50 -281 -134 -359 -243 -42
-60 -106 -183 -106 -205 0 -23 -22 -22 -112 3 -463 130 -828 302 -1146 540
-95 70 -402 357 -402 375 0 4 11 12 24 19 l24 13 -19 42 c-10 23 -25 69 -34
101 -16 62 -20 191 -7 212 6 9 48 -4 157 -48 572 -230 1239 -398 1842 -464
341 -37 862 -43 1218 -15 306 24 619 73 866 135 146 37 397 116 426 135 16 10
16 11 1 6 -11 -3 -18 1 -20 12 -3 13 20 27 93 58 188 80 398 207 497 302 l47
44 -50 -42 c-140 -118 -385 -255 -595 -333 -323 -120 -738 -209 -1155 -247
-368 -34 -951 -29 -1305 10 -245 27 -670 98 -641 108 6 2 33 -1 59 -7 26 -6
67 -13 92 -16 l45 -7 -3 56 c-4 55 -4 56 25 57 38 1 24 5 -90 25 -54 9 -96 19
-93 21 2 2 46 -3 98 -12 959 -166 2003 -132 2772 91 413 121 724 302 811 475
15 28 24 53 22 55 -2 2 -46 -11 -98 -30 -835 -301 -1942 -395 -3079 -261 -187
22 -555 78 -542 83 6 2 59 -4 118 -12 59 -9 109 -15 111 -12 2 2 -10 6 -27 9
-27 6 -30 10 -30 45 l0 39 -72 11 c-69 10 -70 10 -13 6 33 -2 150 -13 260 -23
399 -38 595 -46 1215 -46 497 0 638 4 790 18 429 40 694 88 932 168 138 45
297 117 343 153 11 9 -23 -6 -75 -33 -52 -27 -140 -66 -195 -86 -104 -39 -313
-96 -343 -94 -9 1 1 5 23 10 22 5 45 16 50 23 6 8 33 21 60 29 66 20 42 21
-32 2 -298 -79 -737 -123 -1318 -132 -1056 -15 -1933 73 -2700 272 -141 37
-428 125 -438 135 -29 28 483 294 654 340 22 6 48 13 57 16 9 2 4 -2 -11 -9
l-29 -14 89 -38 c367 -159 742 -260 1161 -312 195 -24 713 -24 902 0 611 79
1128 255 1619 551 l124 74 101 -34 c140 -49 308 -133 391 -197 71 -54 192
-208 180 -228 -3 -5 1 -6 10 -3 9 4 29 48 48 108 29 92 32 113 32 226 l0 125
-46 60 c-59 76 -196 206 -263 251 -37 23 -26 28 114 54 544 97 1092 262 1488
445 106 50 138 74 39 31 -33 -15 -57 -21 -59 -15 -2 6 -27 0 -62 -15 -33 -15
-61 -25 -63 -23 -1 2 45 25 104 52 323 143 665 358 833 523 l65 65 -66 -60
c-341 -308 -894 -584 -1547 -772 -246 -71 -762 -187 -762 -172 0 4 48 54 108
113 l107 106 100 21 c651 140 1372 442 1767 739 172 129 312 282 378 412 25
50 60 150 60 173 0 5 -20 -3 -44 -17 -86 -50 -423 -215 -573 -279 -313 -136
-666 -257 -1036 -356 -100 -27 -183 -48 -185 -46 -4 4 99 194 109 201 6 3 69
19 140 35 410 90 756 205 1022 341 116 59 288 166 301 187 4 6 -28 -14 -71
-43 -148 -102 -376 -213 -590 -286 -63 -22 -117 -40 -119 -40 -2 0 6 10 18 23
12 12 47 32 78 44 30 12 51 22 45 22 -5 1 -34 -8 -64 -19 -89 -35 -417 -126
-573 -161 -120 -26 -149 -36 -154 -51 -3 -11 -8 -18 -10 -15 -3 2 23 71 56
153 171 418 256 793 285 1256 6 87 4 97 -12 102 -62 19 129 -10 257 -39 495
-112 875 -277 1041 -453 111 -117 120 -131 108 -155 -11 -22 -11 -22 11 1 25
26 74 165 91 256 14 79 14 210 -1 317 -12 84 -12 84 -69 138 -270 256 -738
477 -1341 631 -117 31 -146 41 -148 56 -24 144 -115 451 -188 639 -349 888
-1058 1632 -1944 2040 -408 188 -801 297 -1260 350 -160 19 -562 27 -710 15z
m378 -57 c-53 -2 -143 -2 -200 0 -57 1 -13 3 97 3 110 0 156 -2 103 -3z m-340
-10 c-15 -2 -42 -2 -60 0 -18 2 -6 4 27 4 33 0 48 -2 33 -4z m545 0 c-18 -2
-48 -2 -65 0 -18 2 -4 4 32 4 36 0 50 -2 33 -4z m-680 -10 c-13 -2 -33 -2 -45
0 -13 2 -3 4 22 4 25 0 35 -2 23 -4z m847 -3 c34 -6 25 -7 -35 -3 -44 3 -82 7
-84 9 -8 7 73 3 119 -6z m-932 -7 c-10 -2 -28 -2 -40 0 -13 2 -5 4 17 4 22 1
32 -1 23 -4z m-85 -10 c-7 -2 -21 -2 -30 0 -10 3 -4 5 12 5 17 0 24 -2 18 -5z
m1125 0 c-10 -2 -26 -2 -35 0 -10 3 -2 5 17 5 19 0 27 -2 18 -5z m-1185 -10
c-7 -2 -21 -2 -30 0 -10 3 -4 5 12 5 17 0 24 -2 18 -5z m1250 0 c-7 -2 -21 -2
-30 0 -10 3 -4 5 12 5 17 0 24 -2 18 -5z m-1310 -10 c-7 -2 -21 -2 -30 0 -10
3 -4 5 12 5 17 0 24 -2 18 -5z m1402 -3 c27 -7 27 -8 5 -8 -14 0 -38 4 -55 8
-27 7 -27 8 -5 8 14 0 39 -4 55 -8z m-1480 -10 c-16 -4 -39 -8 -50 -8 -16 0
-15 2 5 8 14 4 36 8 50 8 22 0 22 -1 -5 -8z m1600 -15 c28 -7 41 -13 30 -13
-11 0 -42 6 -70 13 -27 7 -41 13 -30 13 11 0 43 -6 70 -13z m-1682 -2 c-7 -2
-19 -2 -25 0 -7 3 -2 5 12 5 14 0 19 -2 13 -5z m-46 -9 c-3 -3 -12 -4 -19 -1
-8 3 -5 6 6 6 11 1 17 -2 13 -5z m-57 -14 c-34 -11 -60 -11 -35 0 11 5 29 8
40 8 16 0 15 -2 -5 -8z m1910 -4 c25 -8 38 -15 30 -15 -8 0 -35 6 -60 13 -25
8 -38 15 -30 15 8 0 35 -6 60 -13z m-1973 -12 c-3 -3 -12 -4 -19 -1 -8 3 -5 6
6 6 11 1 17 -2 13 -5z m-92 -25 c-33 -10 -64 -18 -70 -18 -15 1 97 38 115 37
8 0 -12 -8 -45 -19z m2244 -14 c36 -13 62 -24 56 -24 -5 0 -50 13 -100 29 -49
17 -75 27 -56 24 18 -3 63 -17 100 -29z m-2423 -41 c-38 -13 -71 -22 -73 -20
-5 5 107 44 127 44 8 0 -16 -10 -54 -24z m2596 -15 c32 -12 57 -24 55 -26 -3
-2 -33 7 -68 21 -79 30 -68 34 13 5z m-2692 -18 c-8 -5 -26 -11 -40 -15 -21
-5 -20 -3 5 9 32 15 60 20 35 6z m2871 -52 c55 -23 98 -43 96 -45 -3 -4 -197
74 -206 82 -12 11 20 0 110 -37z m-2976 11 c-22 -10 -44 -18 -50 -18 -5 0 8 8
30 19 22 10 45 18 50 18 6 0 -8 -9 -30 -19z m-85 -35 c-14 -8 -29 -14 -35 -14
-5 0 1 6 15 14 14 8 30 14 35 14 6 0 -1 -6 -15 -14z m-110 -50 c-36 -19 -69
-34 -75 -34 -5 0 19 15 55 34 36 19 70 34 75 34 6 0 -19 -15 -55 -34z m3410
-35 c66 -33 120 -62 120 -65 0 -5 -239 112 -249 121 -14 13 24 -3 129 -56z
m-3560 -34 c0 -2 -39 -25 -87 -51 -514 -278 -996 -719 -1323 -1210 -29 -44
-57 -84 -63 -90 -14 -14 -1 9 46 80 328 495 795 927 1315 1216 109 61 112 62
112 55z m3851 -128 l24 -20 -27 16 c-15 9 -57 32 -93 52 -36 20 -65 38 -65 41
0 7 134 -67 161 -89z m144 -91 c392 -261 754 -621 1022 -1014 70 -103 117
-179 101 -163 -3 3 -46 66 -96 140 -272 406 -630 763 -1032 1030 -52 34 -99
67 -105 73 -15 15 10 0 110 -66z m-5495 -1184 c-13 -21 -41 -71 -63 -111 -21
-40 -41 -71 -44 -69 -3 4 35 73 114 210 2 4 7 7 10 7 3 0 -5 -17 -17 -37z
m6671 -78 c18 -33 28 -55 22 -50 -5 6 -25 37 -43 70 -18 33 -28 56 -23 50 6
-5 26 -37 44 -70z m88 -163 c64 -128 132 -288 176 -413 42 -120 95 -302 94
-320 0 -8 -18 45 -39 116 -70 236 -142 419 -241 617 -27 54 -47 98 -44 98 3 0
27 -44 54 -98z m-6896 -7 c-15 -30 -29 -53 -31 -51 -4 5 46 106 53 106 3 0 -7
-25 -22 -55z m-67 -142 c-14 -26 -25 -45 -26 -41 0 12 43 98 48 94 2 -2 -8
-26 -22 -53z m-35 -80 c-12 -20 -14 -14 -5 12 4 9 9 14 11 11 3 -2 0 -13 -6
-23z m-20 -50 c-12 -20 -14 -14 -5 12 4 9 9 14 11 11 3 -2 0 -13 -6 -23z m-20
-50 c-12 -20 -14 -14 -5 12 4 9 9 14 11 11 3 -2 0 -13 -6 -23z m-37 -107 c-14
-42 -28 -75 -30 -73 -2 2 8 38 22 81 14 42 28 75 30 73 2 -2 -8 -38 -22 -81z
m-40 -120 c-3 -15 -8 -25 -11 -23 -2 3 -1 17 3 31 3 15 8 25 11 23 2 -3 1 -17
-3 -31z m-30 -105 c-10 -33 -19 -59 -21 -57 -3 2 3 32 13 65 9 34 19 60 21 58
2 -3 -4 -32 -13 -66z m-35 -135 c-7 -31 -14 -54 -16 -52 -3 3 1 30 8 60 7 31
14 54 16 52 3 -3 -1 -30 -8 -60z m7458 22 c-3 -8 -6 -5 -6 6 -1 11 2 17 5 13
3 -3 4 -12 1 -19z m32 -123 c-2 -17 -27 69 -27 90 0 11 6 -2 14 -30 7 -27 13
-54 13 -60z m-7512 3 c-3 -7 -5 -2 -5 12 0 14 2 19 5 13 2 -7 2 -19 0 -25z
m7560 -14 c-3 -3 -12 -4 -19 -1 -8 3 -5 6 6 6 11 1 17 -2 13 -5z m-7572 -59
c-4 -25 -9 -44 -12 -41 -2 2 -1 25 2 51 4 25 9 44 12 41 2 -2 1 -25 -2 -51z
m-18 -92 c-3 -10 -5 -4 -5 12 0 17 2 24 5 18 2 -7 2 -21 0 -30z m-10 -75 c-2
-13 -4 -5 -4 17 -1 22 1 32 4 23 2 -10 2 -28 0 -40z m-10 -80 c-2 -13 -4 -5
-4 17 -1 22 1 32 4 23 2 -10 2 -28 0 -40z m-10 -110 c-2 -18 -4 -6 -4 27 0 33
2 48 4 33 2 -15 2 -42 0 -60z m-11 -445 c-3 -7 -11 -13 -18 -12 -10 0 -10 2 0
6 9 3 13 57 14 211 l3 207 2 -200 c2 -110 1 -205 -1 -212z m7651 20 c-2 -21
-4 -4 -4 37 0 41 2 58 4 38 2 -21 2 -55 0 -75z m-10 -125 c-2 -18 -4 -6 -4 27
0 33 2 48 4 33 2 -15 2 -42 0 -60z m-12 -133 c-4 -42 -9 -74 -11 -72 -3 3 -2
39 2 81 4 42 9 74 12 72 2 -3 1 -39 -3 -81z m-18 -132 c-3 -10 -5 -2 -5 17 0
19 2 27 5 18 2 -10 2 -26 0 -35z m-10 -60 c-3 -10 -5 -4 -5 12 0 17 2 24 5 18
2 -7 2 -21 0 -30z m-10 -55 c-3 -7 -5 -2 -5 12 0 14 2 19 5 13 2 -7 2 -19 0
-25z m-17 -88 c-7 -33 -15 -59 -17 -56 -2 2 1 31 8 65 7 33 15 58 17 56 3 -2
-1 -32 -8 -65z m-23 -92 c-3 -8 -6 -5 -6 6 -1 11 2 17 5 13 3 -3 4 -12 1 -19z
m-12 -58 c-4 -17 -9 -30 -11 -27 -2 2 -1 18 2 36 4 17 9 30 11 27 3 -2 2 -19
-2 -36z m-21 -74 c-3 -15 -8 -25 -11 -23 -2 3 -1 17 3 31 3 15 8 25 11 23 2
-3 1 -17 -3 -31z m-25 -85 c-7 -23 -14 -39 -16 -37 -3 2 1 23 8 45 7 23 14 39
16 37 3 -2 -1 -23 -8 -45z m-52 -152 c-42 -117 -98 -251 -103 -247 -2 2 16 51
40 109 23 57 53 135 65 172 13 38 25 66 27 64 3 -2 -11 -47 -29 -98z m-7591
-42 c101 -85 245 -195 367 -280 48 -35 74 -62 92 -95 36 -70 61 -103 70 -95 4
5 5 2 1 -5 -8 -13 43 -106 143 -262 223 -348 556 -705 901 -965 58 -43 107
-80 110 -83 3 -2 -3 -9 -14 -16 -10 -6 -71 -50 -135 -97 -131 -98 -254 -216
-333 -319 -61 -80 -43 -80 -203 -8 -388 174 -833 437 -1230 726 -221 162 -545
424 -545 442 0 5 9 11 19 15 18 6 18 7 1 54 -56 145 -79 423 -45 545 47 174
169 303 394 416 74 37 267 108 297 110 5 0 55 -37 110 -83z m8119 -187 c-27
-10 -57 -18 -65 -18 -8 0 8 8 35 18 28 10 57 18 65 18 8 0 -7 -8 -35 -18z
m-598 -36 c-3 -3 -12 -4 -19 -1 -8 3 -5 6 6 6 11 1 17 -2 13 -5z m-6882 -327
c232 -403 589 -803 981 -1098 54 -42 107 -80 116 -85 16 -9 14 -12 -15 -27
-27 -15 -28 -15 -10 -1 23 16 22 17 -85 97 -370 277 -681 611 -914 982 -42 66
-86 132 -98 147 -12 16 -16 26 -8 23 8 -3 22 -20 33 -38z m7415 -527 c-8 -5
-19 -10 -25 -10 -5 0 -3 5 5 10 8 5 20 10 25 10 6 0 3 -5 -5 -10z m-1950 -766
c0 -2 -10 -3 -23 -2 -12 1 -61 -21 -107 -48 -122 -73 -221 -126 -225 -122 -2
2 33 23 78 48 45 24 117 65 160 91 49 29 86 45 98 42 10 -3 19 -7 19 -9z
m-374 -183 c-6 -9 -46 -22 -46 -15 0 3 10 9 23 14 29 11 29 11 23 1z m-96 -46
c-25 -13 -49 -24 -55 -24 -5 0 10 11 35 24 25 13 50 24 55 24 6 0 -10 -11 -35
-24z m-3210 -41 c33 -15 59 -29 56 -31 -2 -3 -15 1 -27 8 -13 6 -46 20 -74 30
-27 10 -42 18 -33 19 9 0 44 -12 78 -26z m3075 -19 c-27 -13 -54 -24 -60 -24
-5 1 13 11 40 24 28 13 55 24 60 24 6 -1 -12 -11 -40 -24z m-2945 -37 c10 -6
7 -7 -10 -2 -14 3 -32 11 -40 16 -10 6 -7 7 10 2 14 -3 32 -11 40 -16z m2860
3 c-8 -5 -26 -11 -40 -15 -21 -5 -20 -3 5 9 32 15 60 20 35 6z m-2780 -33 c10
-6 7 -7 -10 -2 -14 3 -32 11 -40 16 -10 6 -7 7 10 2 14 -3 32 -11 40 -16z
m2700 3 c-8 -5 -26 -11 -40 -15 -21 -5 -20 -3 5 9 32 15 60 20 35 6z m-2594
-37 c31 -9 54 -18 51 -20 -5 -6 -137 35 -137 42 0 4 7 3 15 0 9 -3 41 -13 71
-22z m2509 6 c-27 -12 -43 -12 -25 0 8 5 22 9 30 9 10 0 8 -3 -5 -9z m-106
-35 c-37 -12 -82 -26 -100 -29 -19 -3 4 7 51 23 47 16 92 29 100 29 8 0 -15
-10 -51 -23z m-2264 -15 c33 -11 44 -17 25 -13 -38 6 -111 31 -95 32 6 0 37
-8 70 -19z m150 -40 c39 -11 54 -18 34 -15 -39 6 -130 33 -114 34 6 0 42 -8
80 -19z m1935 4 c-25 -7 -52 -13 -60 -13 -21 1 60 27 85 27 11 0 0 -6 -25 -14z
m-83 -20 c-3 -3 -12 -4 -19 -1 -8 3 -5 6 6 6 11 1 17 -2 13 -5z m-1744 -11
c-7 -2 -19 -2 -25 0 -7 3 -2 5 12 5 14 0 19 -2 13 -5z m1700 0 c-7 -2 -19 -2
-25 0 -7 3 -2 5 12 5 14 0 19 -2 13 -5z m-1656 -9 c-3 -3 -12 -4 -19 -1 -8 3
-5 6 6 6 11 1 17 -2 13 -5z m1593 -4 c-14 -4 -36 -8 -50 -8 -22 0 -22 1 5 8
17 4 39 8 50 8 16 0 15 -2 -5 -8z m-1505 -10 c27 -7 27 -8 5 -8 -14 0 -38 4
-55 8 -27 7 -27 8 -5 8 14 0 39 -4 55 -8z m1400 -10 c-16 -4 -43 -8 -60 -8
-29 1 -29 1 5 8 19 4 46 7 60 8 22 0 22 -1 -5 -8z m-1322 -7 c-7 -2 -21 -2
-30 0 -10 3 -4 5 12 5 17 0 24 -2 18 -5z m60 -10 c-7 -2 -21 -2 -30 0 -10 3
-4 5 12 5 17 0 24 -2 18 -5z m1160 0 c-7 -2 -21 -2 -30 0 -10 3 -4 5 12 5 17
0 24 -2 18 -5z m-1080 -10 c-13 -2 -33 -2 -45 0 -13 2 -3 4 22 4 25 0 35 -2
23 -4z m1015 0 c-10 -2 -28 -2 -40 0 -13 2 -5 4 17 4 22 1 32 -1 23 -4z m-925
-10 c-13 -2 -33 -2 -45 0 -13 2 -3 4 22 4 25 0 35 -2 23 -4z m840 0 c-13 -2
-35 -2 -50 0 -16 2 -5 4 22 4 28 0 40 -2 28 -4z m-725 -10 c-15 -2 -42 -2 -60
0 -18 2 -6 4 27 4 33 0 48 -2 33 -4z m620 0 c-15 -2 -42 -2 -60 0 -18 2 -6 4
27 4 33 0 48 -2 33 -4z m-215 -10 c-68 -2 -178 -2 -245 0 -68 1 -13 3 122 3
135 0 190 -2 123 -3z m1790 -380 c-7 -2 -19 -2 -25 0 -7 3 -2 5 12 5 14 0 19
-2 13 -5z m-3016 -19 c-3 -3 -12 -4 -19 -1 -8 3 -5 6 6 6 11 1 17 -2 13 -5z
m86 -11 c-7 -2 -21 -2 -30 0 -10 3 -4 5 12 5 17 0 24 -2 18 -5z m-100 -80 c-7
-2 -19 -2 -25 0 -7 3 -2 5 12 5 14 0 19 -2 13 -5z m60 -10 c-7 -2 -19 -2 -25
0 -7 3 -2 5 12 5 14 0 19 -2 13 -5z m-76 -379 c-3 -3 -12 -4 -19 -1 -8 3 -5 6
6 6 11 1 17 -2 13 -5z m50 -10 c-3 -3 -12 -4 -19 -1 -8 3 -5 6 6 6 11 1 17 -2
13 -5z m46 -11 c-7 -2 -19 -2 -25 0 -7 3 -2 5 12 5 14 0 19 -2 13 -5z m-36
-129 c-3 -3 -12 -4 -19 -1 -8 3 -5 6 6 6 11 1 17 -2 13 -5z m1130 -1340 c-3
-3 -12 -4 -19 -1 -8 3 -5 6 6 6 11 1 17 -2 13 -5z m-40 -10 c-3 -3 -12 -4 -19
-1 -8 3 -5 6 6 6 11 1 17 -2 13 -5z"/>
<path d="M1505 5470 c10 -11 20 -20 23 -20 3 0 -3 9 -13 20 -10 11 -20 20 -23
20 -3 0 3 -9 13 -20z"/>
<path d="M1560 5426 c0 -2 8 -10 18 -17 15 -13 16 -12 3 4 -13 16 -21 21 -21
13z"/>
<path d="M1625 5370 c10 -11 20 -20 23 -20 3 0 -3 9 -13 20 -10 11 -20 20 -23
20 -3 0 3 -9 13 -20z"/>
<path d="M870 4426 c0 -2 8 -10 18 -17 15 -13 16 -12 3 4 -13 16 -21 21 -21
13z"/>
<path d="M945 4360 c10 -11 20 -20 23 -20 3 0 -3 9 -13 20 -10 11 -20 20 -23
20 -3 0 3 -9 13 -20z"/>
<path d="M1005 4310 c10 -11 20 -20 23 -20 3 0 -3 9 -13 20 -10 11 -20 20 -23
20 -3 0 3 -9 13 -20z"/>
<path d="M1100 4236 c0 -2 8 -10 18 -17 15 -13 16 -12 3 4 -13 16 -21 21 -21
13z"/>
<path d="M1240 4126 c0 -2 8 -10 18 -17 15 -13 16 -12 3 4 -13 16 -21 21 -21
13z"/>
<path d="M700 6336 c0 -2 8 -10 18 -17 15 -13 16 -12 3 4 -13 16 -21 21 -21
13z"/>
<path d="M820 6176 c0 -2 8 -10 18 -17 15 -13 16 -12 3 4 -13 16 -21 21 -21
13z"/>
<path d="M860 6126 c0 -2 8 -10 18 -17 15 -13 16 -12 3 4 -13 16 -21 21 -21
13z"/>
<path d="M11081 6044 c0 -11 3 -14 6 -6 3 7 2 16 -1 19 -3 4 -6 -2 -5 -13z"/>
<path d="M11192 6040 c0 -14 2 -19 5 -12 2 6 2 18 0 25 -3 6 -5 1 -5 -13z"/>
<path d="M11093 5965 c0 -22 2 -30 4 -17 2 12 2 30 0 40 -3 9 -5 -1 -4 -23z"/>
<path d="M10699 5973 c-13 -16 -12 -17 4 -4 9 7 17 15 17 17 0 8 -8 3 -21 -13z"/>
<path d="M10820 5960 c-6 -11 -8 -20 -6 -20 3 0 10 9 16 20 6 11 8 20 6 20 -3
0 -10 -9 -16 -20z"/>
<path d="M10659 5923 c-13 -16 -12 -17 4 -4 9 7 17 15 17 17 0 8 -8 3 -21 -13z"/>
<path d="M10789 5913 c-13 -16 -12 -17 4 -4 9 7 17 15 17 17 0 8 -8 3 -21 -13z"/>
<path d="M11093 5865 c0 -33 2 -45 4 -27 2 18 2 45 0 60 -2 15 -4 0 -4 -33z"/>
<path d="M10759 5873 c-13 -16 -12 -17 4 -4 9 7 17 15 17 17 0 8 -8 3 -21 -13z"/>
<path d="M10680 5783 l-65 -68 68 65 c37 35 67 66 67 67 0 8 -10 -2 -70 -64z"/>
<path d="M10534 5798 l-19 -23 23 19 c21 18 27 26 19 26 -2 0 -12 -10 -23 -22z"/>
<path d="M11191 5774 c0 -11 3 -14 6 -6 3 7 2 16 -1 19 -3 4 -6 -2 -5 -13z"/>
<path d="M11081 5764 c0 -11 3 -14 6 -6 3 7 2 16 -1 19 -3 4 -6 -2 -5 -13z"/>
<path d="M10584 5698 l-19 -23 23 19 c21 18 27 26 19 26 -2 0 -12 -10 -23 -22z"/>
<path d="M11061 5664 c0 -11 3 -14 6 -6 3 7 2 16 -1 19 -3 4 -6 -2 -5 -13z"/>
<path d="M10835 5223 c-21 -27 -57 -68 -79 -93 l-41 -45 38 35 c37 34 133 150
124 150 -3 0 -22 -21 -42 -47z"/>
<path d="M10879 5103 c-13 -16 -12 -17 4 -4 16 13 21 21 13 21 -2 0 -10 -8
-17 -17z"/>
<path d="M10694 5058 l-19 -23 23 19 c21 18 27 26 19 26 -2 0 -12 -10 -23 -22z"/>
<path d="M10765 4978 l-60 -63 63 60 c34 33 62 61 62 62 0 8 -10 -1 -65 -59z"/>
<path d="M10639 4863 c-13 -16 -12 -17 4 -4 9 7 17 15 17 17 0 8 -8 3 -21 -13z"/>
<path d="M10584 4818 l-19 -23 23 19 c21 18 27 26 19 26 -2 0 -12 -10 -23 -22z"/>
<path d="M1150 3746 c0 -2 8 -10 18 -17 15 -13 16 -12 3 4 -13 16 -21 21 -21
13z"/>
<path d="M1190 3696 c0 -2 8 -10 18 -17 15 -13 16 -12 3 4 -13 16 -21 21 -21
13z"/>
<path d="M1240 3636 c0 -2 8 -10 18 -17 15 -13 16 -12 3 4 -13 16 -21 21 -21
13z"/>
<path d="M1290 3577 c0 -2 15 -16 33 -33 l32 -29 -29 33 c-28 30 -36 37 -36
29z"/>
<path d="M1400 3457 c0 -1 35 -36 78 -77 l77 -75 -75 78 c-69 71 -80 82 -80
74z"/>
<path d="M1630 3235 c19 -19 36 -35 39 -35 3 0 -10 16 -29 35 -19 19 -36 35
-39 35 -3 0 10 -16 29 -35z"/>
<path d="M8552 3165 c0 -16 2 -22 5 -12 2 9 2 23 0 30 -3 6 -5 -1 -5 -18z"/>
<path d="M1715 3160 c10 -11 20 -20 23 -20 3 0 -3 9 -13 20 -10 11 -20 20 -23
20 -3 0 3 -9 13 -20z"/>
<path d="M1770 3116 c0 -2 8 -10 18 -17 15 -13 16 -12 3 4 -13 16 -21 21 -21
13z"/>
<path d="M8244 3088 l-29 -33 33 29 c17 17 32 31 32 33 0 8 -8 1 -36 -29z"/>
<path d="M8389 3093 c-13 -16 -12 -17 4 -4 16 13 21 21 13 21 -2 0 -10 -8 -17
-17z"/>
<path d="M8315 3008 l-60 -63 63 60 c58 55 67 65 59 65 -1 0 -29 -28 -62 -62z"/>
<path d="M8551 3024 c0 -11 3 -14 6 -6 3 7 2 16 -1 19 -3 4 -6 -2 -5 -13z"/>
<path d="M8541 2974 c0 -11 3 -14 6 -6 3 7 2 16 -1 19 -3 4 -6 -2 -5 -13z"/>
<path d="M8651 2974 c0 -11 3 -14 6 -6 3 7 2 16 -1 19 -3 4 -6 -2 -5 -13z"/>
<path d="M8215 2924 l-30 -26 33 22 c17 12 32 23 32 26 0 7 -4 5 -35 -22z"/>
<path d="M8465 2760 c-9 -16 -13 -30 -11 -30 3 0 12 14 21 30 9 17 13 30 11
30 -3 0 -12 -13 -21 -30z"/>
<path d="M4358 2773 c7 -3 16 -2 19 1 4 3 -2 6 -13 5 -11 0 -14 -3 -6 -6z"/>
<path d="M4638 2733 c7 -3 16 -2 19 1 4 3 -2 6 -13 5 -11 0 -14 -3 -6 -6z"/>
<path d="M4808 2713 c7 -3 16 -2 19 1 4 3 -2 6 -13 5 -11 0 -14 -3 -6 -6z"/>
<path d="M7238 2713 c7 -3 16 -2 19 1 4 3 -2 6 -13 5 -11 0 -14 -3 -6 -6z"/>
<path d="M8411 2673 c-19 -27 -25 -40 -15 -31 18 16 59 78 51 78 -2 0 -18 -21
-36 -47z"/>
<path d="M4928 2703 c7 -3 16 -2 19 1 4 3 -2 6 -13 5 -11 0 -14 -3 -6 -6z"/>
<path d="M7148 2703 c7 -3 16 -2 19 1 4 3 -2 6 -13 5 -11 0 -14 -3 -6 -6z"/>
<path d="M5008 2693 c6 -2 18 -2 25 0 6 3 1 5 -13 5 -14 0 -19 -2 -12 -5z"/>
<path d="M5168 2683 c6 -2 18 -2 25 0 6 3 1 5 -13 5 -14 0 -19 -2 -12 -5z"/>
<path d="M6948 2683 c6 -2 18 -2 25 0 6 3 1 5 -13 5 -14 0 -19 -2 -12 -5z"/>
<path d="M5283 2673 c9 -2 23 -2 30 0 6 3 -1 5 -18 5 -16 0 -22 -2 -12 -5z"/>
<path d="M6868 2673 c7 -3 16 -2 19 1 4 3 -2 6 -13 5 -11 0 -14 -3 -6 -6z"/>
<path d="M5543 2663 c15 -2 39 -2 55 0 15 2 2 4 -28 4 -30 0 -43 -2 -27 -4z"/>
<path d="M6658 2663 c12 -2 30 -2 40 0 9 3 -1 5 -23 4 -22 0 -30 -2 -17 -4z"/>
<path d="M5763 2653 c15 -2 37 -2 50 0 12 2 0 4 -28 4 -27 0 -38 -2 -22 -4z"/>
<path d="M6478 2653 c12 -2 32 -2 45 0 12 2 2 4 -23 4 -25 0 -35 -2 -22 -4z"/>
<path d="M8349 2593 l-24 -28 28 24 c15 14 27 26 27 28 0 8 -8 1 -31 -24z"/>
<path d="M4733 2583 c9 -2 23 -2 30 0 6 3 -1 5 -18 5 -16 0 -22 -2 -12 -5z"/>
<path d="M8459 2553 c-13 -16 -12 -17 4 -4 9 7 17 15 17 17 0 8 -8 3 -21 -13z"/>
<path d="M8289 2523 l-24 -28 28 24 c15 14 27 26 27 28 0 8 -8 1 -31 -24z"/>
<path d="M8375 2458 l-60 -63 63 60 c58 55 67 65 59 65 -1 0 -29 -28 -62 -62z"/>
<path d="M8259 2353 c-13 -16 -12 -17 4 -4 16 13 21 21 13 21 -2 0 -10 -8 -17
-17z"/>
<path d="M7690 2105 c-14 -8 -20 -14 -15 -14 6 0 21 6 35 14 14 8 21 14 15 14
-5 0 -21 -6 -35 -14z"/>
<path d="M3215 1950 c10 -11 20 -20 23 -20 3 0 -3 9 -13 20 -10 11 -20 20 -23
20 -3 0 3 -9 13 -20z"/>
<path d="M4738 1963 c6 -2 18 -2 25 0 6 3 1 5 -13 5 -14 0 -19 -2 -12 -5z"/>
<path d="M6918 1823 c7 -3 16 -2 19 1 4 3 -2 6 -13 5 -11 0 -14 -3 -6 -6z"/>
<path d="M6848 1813 c7 -3 16 -2 19 1 4 3 -2 6 -13 5 -11 0 -14 -3 -6 -6z"/>
<path d="M4868 1803 c7 -3 16 -2 19 1 4 3 -2 6 -13 5 -11 0 -14 -3 -6 -6z"/>
<path d="M6798 1803 c7 -3 16 -2 19 1 4 3 -2 6 -13 5 -11 0 -14 -3 -6 -6z"/>
<path d="M5018 1783 c7 -3 16 -2 19 1 4 3 -2 6 -13 5 -11 0 -14 -3 -6 -6z"/>
<path d="M3410 1755 c13 -14 26 -25 28 -25 3 0 -5 11 -18 25 -13 14 -26 25
-28 25 -3 0 5 -11 18 -25z"/>
<path d="M5118 1773 c7 -3 16 -2 19 1 4 3 -2 6 -13 5 -11 0 -14 -3 -6 -6z"/>
<path d="M6548 1773 c7 -3 16 -2 19 1 4 3 -2 6 -13 5 -11 0 -14 -3 -6 -6z"/>
<path d="M5188 1763 c6 -2 18 -2 25 0 6 3 1 5 -13 5 -14 0 -19 -2 -12 -5z"/>
<path d="M6468 1763 c7 -3 16 -2 19 1 4 3 -2 6 -13 5 -11 0 -14 -3 -6 -6z"/>
<path d="M5323 1753 c9 -2 25 -2 35 0 9 3 1 5 -18 5 -19 0 -27 -2 -17 -5z"/>
<path d="M6308 1753 c6 -2 18 -2 25 0 6 3 1 5 -13 5 -14 0 -19 -2 -12 -5z"/>
<path d="M5458 1743 c12 -2 30 -2 40 0 9 3 -1 5 -23 4 -22 0 -30 -2 -17 -4z"/>
<path d="M6168 1743 c12 -2 32 -2 45 0 12 2 2 4 -23 4 -25 0 -35 -2 -22 -4z"/>
<path d="M3480 1696 c0 -2 8 -10 18 -17 15 -13 16 -12 3 4 -13 16 -21 21 -21
13z"/>
<path d="M3530 1656 c0 -2 8 -10 18 -17 15 -13 16 -12 3 4 -13 16 -21 21 -21
13z"/>
<path d="M3140 1616 c0 -2 8 -10 18 -17 15 -13 16 -12 3 4 -13 16 -21 21 -21
13z"/>
<path d="M3260 1467 c0 -2 15 -16 33 -33 l32 -29 -29 33 c-28 30 -36 37 -36
29z"/>
<path d="M3440 1285 c19 -19 36 -35 39 -35 3 0 -10 16 -29 35 -19 19 -36 35
-39 35 -3 0 10 -16 29 -35z"/>
<path d="M3510 1226 c0 -2 8 -10 18 -17 15 -13 16 -12 3 4 -13 16 -21 21 -21
13z"/>
<path d="M3570 1176 c0 -2 8 -10 18 -17 15 -13 16 -12 3 4 -13 16 -21 21 -21
13z"/>
<path d="M3610 1146 c0 -2 8 -10 18 -17 15 -13 16 -12 3 4 -13 16 -21 21 -21
13z"/>
<path d="M5368 943 c6 -2 18 -2 25 0 6 3 1 5 -13 5 -14 0 -19 -2 -12 -5z"/>
<path d="M5448 933 c6 -2 18 -2 25 0 6 3 1 5 -13 5 -14 0 -19 -2 -12 -5z"/>
<path d="M5648 933 c7 -3 16 -2 19 1 4 3 -2 6 -13 5 -11 0 -14 -3 -6 -6z"/>
<path d="M5880 890 c-19 -11 -31 -19 -27 -20 11 0 67 29 67 35 0 7 -1 7 -40
-15z"/>
<path d="M5925 864 c-9 -15 -12 -23 -6 -20 11 7 35 46 28 46 -3 0 -12 -12 -22
-26z"/>
<path d="M5884 808 l-19 -23 23 19 c12 11 22 21 22 23 0 8 -8 2 -26 -19z"/>
<path d="M5959 733 l-34 -38 38 34 c34 33 42 41 34 41 -2 0 -19 -17 -38 -37z"/>
<path d="M5528 553 c7 -3 16 -2 19 1 4 3 -2 6 -13 5 -11 0 -14 -3 -6 -6z"/>
<path d="M5143 543 c9 -2 23 -2 30 0 6 3 -1 5 -18 5 -16 0 -22 -2 -12 -5z"/>
<path d="M5463 543 c9 -2 23 -2 30 0 6 3 -1 5 -18 5 -16 0 -22 -2 -12 -5z"/>
</g>
</svg>
