<?xml version="1.0" encoding="utf-8"?>
<!-- Uploaded to: SVG Repo, www.svgrepo.com, Generator: SVG Repo Mixer Tools -->
<svg fill="#000000" width="800px" height="800px" viewBox="-4 0 32 32" version="1.1" xmlns="http://www.w3.org/2000/svg">
<title>college</title>
<path d="M12.188 7.844l12.188 4.875-12.188 4.844-9.094-3.625c-0.563 0.469-0.969 1.219-1.031 2.063h0.219c0.25 0 0.438 0.188 0.438 0.438v1.156c0 0.25-0.188 0.438-0.438 0.438h-0.156l0.594 6.063c0.031 0.25-0.156 0.469-0.406 0.469h-1.094c-0.25 0-0.438-0.219-0.438-0.469l0.625-6.063h-0.156c-0.25 0-0.469-0.188-0.469-0.438v-1.156c0-0.25 0.219-0.438 0.469-0.438h0.344c0.063-0.906 0.469-1.688 1.031-2.25l-2.625-1.031zM11.844 18.438l0.344 0.125 0.344-0.125 6.688-2.688 0.5 5.531c0.031 0.375-0.219 0.531-0.563 0.375l-2.625-1.344c-0.344-0.188-0.906-0.156-1.219 0.031l-2.531 1.438c-0.313 0.188-0.875 0.188-1.188 0l-2.531-1.438c-0.313-0.188-0.875-0.219-1.188-0.031l-2.656 1.344c-0.344 0.188-0.594 0-0.563-0.375l0.5-5.531z"></path>
</svg>