<svg width="800" height="800" viewBox="-4 0 32 32" xmlns="http://www.w3.org/2000/svg"><path d="m12.188 7.844 12.188 4.875-12.188 4.844-9.094-3.625c-.563.469-.969 1.219-1.031 2.063h.219c.25 0 .438.188.438.438v1.156c0 .25-.188.438-.438.438h-.156l.594 6.063a.412.412 0 0 1-.406.469H1.22c-.25 0-.438-.219-.438-.469l.625-6.063h-.156c-.25 0-.469-.188-.469-.438v-1.156c0-.25.219-.438.469-.438h.344a3.53 3.53 0 0 1 1.031-2.25L.001 12.72zm-.344 10.594.344.125.344-.125 6.688-2.688.5 5.531c.031.375-.219.531-.563.375l-2.625-1.344c-.344-.188-.906-.156-1.219.031l-2.531 1.438c-.313.188-.875.188-1.188 0l-2.531-1.438c-.313-.188-.875-.219-1.188-.031l-2.656 1.344c-.344.188-.594 0-.563-.375l.5-5.531z"/></svg>