<?xml version="1.0" encoding="utf-8"?>

<!-- Uploaded to: SVG Repo, www.svgrepo.com, Generator: SVG Repo Mixer Tools -->
<svg version="1.1" id="Icons" xmlns="http://www.w3.org/2000/svg" xmlns:xlink="http://www.w3.org/1999/xlink" 
	 viewBox="0 0 32 32" xml:space="preserve">
<style type="text/css">
	.st0{fill:none;stroke:#000000;stroke-width:2;stroke-linecap:round;stroke-linejoin:round;stroke-miterlimit:10;}
</style>
<path class="st0" d="M27,31c-2.9-3.6-7.4-6-12.5-6S4.9,27.4,2,31H27z"/>
<path class="st0" d="M8.6,12v1H17c-1.6-2.4-4.2-4-7-4s-5.4,1.6-7,4h3.6L8.6,12z"/>
<path class="st0" d="M10.9,5.5l-0.7,0.8l6.2,5.7C17,9,16.2,6,14.1,4.1S9,1.7,6.1,2.5l2.6,2.4L10.9,5.5z"/>
<path class="st0" d="M21.6,9.5l0.5,0.9l7.5-3.8c-2.6-1.4-5.5-1.7-8.1-0.4s-4.1,3.8-4.4,6.7l3.2-1.6L21.6,9.5z"/>
<path class="st0" d="M16,13L16,13c1.3,3.8,0.7,7.9-1.5,11.3L14,25"/>
<path class="st0" d="M18,13l0.9,1.5c2,3.5,2.4,7.7,1.1,11.5l0,0"/>
</svg>