<svg version="1.1" id="Icons" xmlns="http://www.w3.org/2000/svg" viewBox="0 0 32 32" xml:space="preserve"><style>.st0{fill:none;stroke:#000;stroke-width:2;stroke-linecap:round;stroke-linejoin:round;stroke-miterlimit:10}</style><path class="st0" d="M27 31c-2.9-3.6-7.4-6-12.5-6S4.9 27.4 2 31h25zM8.6 12v1H17c-1.6-2.4-4.2-4-7-4s-5.4 1.6-7 4h3.6l2-1z"/><path class="st0" d="m10.9 5.5-.7.8 6.2 5.7c.6-3-.2-6-2.3-7.9S9 1.7 6.1 2.5l2.6 2.4 2.2.6zM21.6 9.5l.5.9 7.5-3.8c-2.6-1.4-5.5-1.7-8.1-.4s-4.1 3.8-4.4 6.7l3.2-1.6 1.3-1.8zM16 13h0c1.3 3.8.7 7.9-1.5 11.3l-.5.7M18 13l.9 1.5c2 3.5 2.4 7.7 1.1 11.5h0"/></svg>